<?xml version="1.0" encoding="utf-8" standalone="no"?>
<!DOCTYPE svg PUBLIC "-//W3C//DTD SVG 1.1//EN"
  "http://www.w3.org/Graphics/SVG/1.1/DTD/svg11.dtd">
<svg xmlns:xlink="http://www.w3.org/1999/xlink" width="460.8pt" height="345.6pt" viewBox="0 0 460.8 345.6" xmlns="http://www.w3.org/2000/svg" version="1.1">
 <metadata>
  <rdf:RDF xmlns:dc="http://purl.org/dc/elements/1.1/" xmlns:cc="http://creativecommons.org/ns#" xmlns:rdf="http://www.w3.org/1999/02/22-rdf-syntax-ns#">
   <cc:Work>
    <dc:type rdf:resource="http://purl.org/dc/dcmitype/StillImage"/>
    <dc:date>2025-04-07T15:26:10.813999</dc:date>
    <dc:format>image/svg+xml</dc:format>
    <dc:creator>
     <cc:Agent>
      <dc:title>Matplotlib v3.7.1, https://matplotlib.org/</dc:title>
     </cc:Agent>
    </dc:creator>
   </cc:Work>
  </rdf:RDF>
 </metadata>
 <defs>
  <style type="text/css">*{stroke-linejoin: round; stroke-linecap: butt}</style>
 </defs>
 <g id="figure_1">
  <g id="patch_1">
   <path d="M 0 345.6 
L 460.8 345.6 
L 460.8 0 
L 0 0 
z
" style="fill: #ffffff"/>
  </g>
  <g id="axes_1">
   <g id="patch_2">
    <path d="M 57.6 307.584 
L 414.72 307.584 
L 414.72 41.472 
L 57.6 41.472 
z
" style="fill: #ffffff"/>
   </g>
   <g id="matplotlib.axis_1"/>
   <g id="matplotlib.axis_2"/>
   <g id="line2d_1">
    <path d="M 73.832727 225.709062 
L 77.112066 229.570358 
L 80.391405 234.16714 
L 83.670744 237.10908 
L 86.950083 211.183232 
L 90.229421 227.547774 
L 93.50876 221.11228 
L 96.788099 225.341319 
L 100.067438 201.989669 
L 103.346777 148.850873 
L 106.626116 123.476639 
L 109.905455 125.499223 
L 113.184793 160.434763 
L 116.464132 186.728354 
L 119.743471 193.53159 
L 123.02281 184.521898 
L 126.302149 156.757338 
L 129.581488 169.260584 
L 132.860826 169.076712 
L 136.140165 189.670294 
L 139.419504 189.302551 
L 142.698843 153.447655 
L 145.978182 112.812106 
L 149.257521 93.505623 
L 152.53686 130.831489 
L 155.816198 156.389595 
L 159.095537 156.573466 
L 162.374876 156.389595 
L 165.654215 131.015361 
L 168.933554 160.618634 
L 172.212893 167.789613 
L 175.492231 188.015452 
L 178.77157 177.350919 
L 182.050909 104.537899 
L 185.330248 83.024961 
L 188.609587 97.366919 
L 191.888926 144.805706 
L 195.168264 161.170248 
L 198.447603 153.815397 
L 201.726942 167.054128 
L 205.006281 167.421871 
L 208.28562 175.144464 
L 211.564959 186.360611 
L 214.844298 186.544482 
L 218.123636 165.76703 
L 221.402975 132.670202 
L 224.682314 113.731462 
L 227.961653 136.347627 
L 231.240992 157.676694 
L 234.520331 164.296059 
L 237.799669 179.373503 
L 241.079008 170.363811 
L 244.358347 163.376703 
L 247.637686 178.821889 
L 250.917025 186.544482 
L 254.196364 199.599342 
L 257.475702 181.947701 
L 260.755041 131.383103 
L 264.03438 133.77343 
L 267.313719 154.367011 
L 270.593058 179.005761 
L 273.872397 161.905733 
L 277.151736 208.609034 
L 280.431074 215.780013 
L 283.710413 197.760629 
L 286.989752 205.483223 
L 290.269091 205.850965 
L 293.54843 224.238091 
L 296.827769 216.69937 
L 300.107107 194.083204 
L 303.386446 158.779922 
L 306.665785 184.338027 
L 309.945124 219.825181 
L 313.224463 227.363903 
L 316.503802 216.69937 
L 319.78314 225.52519 
L 323.062479 220.009052 
L 326.341818 236.741337 
L 329.621157 237.476822 
L 332.900496 235.270367 
L 336.179835 240.786505 
L 339.459174 204.379995 
L 342.738512 170.731554 
L 346.017851 187.831581 
L 349.29719 243.360703 
L 352.576529 238.028436 
L 355.855868 244.280059 
L 359.135207 249.244583 
L 362.414545 236.925209 
L 365.693884 221.480022 
L 368.973223 210.447747 
L 372.252562 240.970376 
L 375.531901 247.957484 
L 378.81124 195.554174 
L 382.090579 164.663802 
L 385.369917 188.015452 
L 388.649256 232.144556 
L 391.928595 244.647802 
L 395.207934 248.509098 
L 398.487273 257.334919 
" clip-path="url(#p5618884587)" style="fill: none; stroke: #1f77b4; stroke-width: 1.5; stroke-linecap: square"/>
   </g>
   <g id="line2d_2">
    <path d="M 73.832727 169.885911 
L 77.112066 177.787776 
L 80.391405 186.401221 
L 83.670744 193.333157 
L 86.950083 171.366239 
L 90.229421 191.655048 
L 93.50876 189.108777 
L 96.788099 197.196389 
L 100.067438 177.683724 
L 103.346777 128.382883 
L 106.626116 106.866108 
L 109.905455 112.755447 
L 113.184793 150.942812 
L 116.464132 180.062331 
L 119.743471 189.293789 
L 123.02281 182.43842 
L 126.302149 156.699487 
L 129.581488 171.238708 
L 132.860826 173.202682 
L 136.140165 196.078129 
L 139.419504 198.017255 
L 142.698843 164.32774 
L 145.978182 125.584409 
L 149.257521 107.874242 
L 152.53686 146.600846 
L 155.816198 173.525529 
L 159.095537 175.156835 
L 162.374876 176.487118 
L 165.654215 152.590109 
L 168.933554 183.503148 
L 172.212893 191.640983 
L 175.492231 212.348641 
L 178.77157 201.68944 
L 182.050909 128.554252 
L 185.330248 106.59053 
L 188.609587 120.484562 
L 191.888926 167.512734 
L 195.168264 183.498673 
L 198.447603 175.749931 
L 201.726942 188.531862 
L 205.006281 188.318061 
L 208.28562 195.336062 
L 211.564959 205.831681 
L 214.844298 205.430888 
L 218.123636 184.310145 
L 221.402975 151.073909 
L 224.682314 132.091851 
L 227.961653 154.695144 
L 231.240992 176.037233 
L 234.520331 182.634388 
L 237.799669 197.547449 
L 241.079008 188.225283 
L 244.358347 180.877187 
L 247.637686 195.913763 
L 250.917025 203.121436 
L 254.196364 215.47914 
L 257.475702 196.891014 
L 260.755041 145.164823 
L 264.03438 146.20634 
L 267.313719 165.300743 
L 270.593058 188.287154 
L 273.872397 169.419844 
L 277.151736 214.286147 
L 280.431074 219.548668 
L 283.710413 199.565162 
L 286.989752 205.37573 
L 290.269091 204.001309 
L 293.54843 220.865693 
L 296.827769 211.953653 
L 300.107107 188.009592 
L 303.386446 151.441126 
L 306.665785 175.84215 
L 309.945124 210.261075 
L 313.224463 216.780802 
L 316.503802 205.204537 
L 319.78314 213.28555 
L 323.062479 207.197445 
L 326.341818 223.488481 
L 329.621157 223.84716 
L 332.900496 221.282135 
L 336.179835 226.479452 
L 339.459174 189.864607 
L 342.738512 156.139977 
L 346.017851 173.320603 
L 349.29719 229.133098 
L 352.576529 224.296356 
L 355.855868 231.176583 
L 359.135207 236.814452 
L 362.414545 225.153143 
L 365.693884 210.31874 
L 368.973223 199.806413 
L 372.252562 230.830156 
L 375.531901 238.313476 
L 378.81124 186.4042 
L 382.090579 156.006076 
L 385.369917 179.84556 
L 388.649256 224.45473 
L 391.928595 237.426941 
L 395.207934 241.7417 
L 398.487273 251.002141 
" clip-path="url(#p5618884587)" style="fill: none; stroke-dasharray: 1.5,2.475; stroke-dashoffset: 0; stroke: #ff7f0e; stroke-width: 1.5"/>
   </g>
   <g id="line2d_3">
    <path d="M 73.832727 295.488 
L 77.112066 294.298585 
L 80.391405 293.874538 
L 83.670744 291.828984 
L 86.950083 260.954473 
L 90.229421 272.413682 
L 93.50876 261.116658 
L 96.788099 260.522481 
L 100.067438 232.372099 
L 103.346777 174.435861 
L 106.626116 144.239803 
L 109.905455 141.428943 
L 113.184793 172.299702 
L 116.464132 195.060882 
L 119.743471 198.828842 
L 123.02281 187.126246 
L 126.302149 156.829651 
L 129.581488 166.787928 
L 132.860826 163.91925 
L 136.140165 181.6605 
L 139.419504 178.409172 
L 142.698843 139.847548 
L 145.978182 96.846726 
L 149.257521 75.54485 
L 152.53686 111.119794 
L 155.816198 134.969678 
L 159.095537 133.344255 
L 162.374876 131.267691 
L 165.654215 104.046925 
L 168.933554 132.012991 
L 172.212893 137.975402 
L 175.492231 157.598967 
L 178.77157 146.927768 
L 182.050909 74.517458 
L 185.330248 53.568 
L 188.609587 68.469866 
L 191.888926 116.42192 
L 195.168264 133.259717 
L 198.447603 126.397231 
L 201.726942 140.206962 
L 205.006281 141.301633 
L 208.28562 149.904966 
L 211.564959 162.021773 
L 214.844298 162.936475 
L 218.123636 142.588135 
L 221.402975 109.665569 
L 224.682314 90.780976 
L 227.961653 113.413232 
L 231.240992 134.72602 
L 234.520331 141.373149 
L 237.799669 156.656071 
L 241.079008 148.036972 
L 244.358347 141.501098 
L 247.637686 157.457047 
L 250.917025 165.82329 
L 254.196364 179.749595 
L 257.475702 163.268559 
L 260.755041 114.155953 
L 264.03438 118.232292 
L 267.313719 140.699846 
L 270.593058 167.404019 
L 273.872397 152.513095 
L 277.151736 201.512643 
L 280.431074 211.069195 
L 283.710413 195.504964 
L 286.989752 205.617588 
L 290.269091 208.163036 
L 293.54843 228.453589 
L 296.827769 222.631515 
L 300.107107 201.675219 
L 303.386446 167.953416 
L 306.665785 194.957874 
L 309.945124 231.780314 
L 313.224463 240.592779 
L 316.503802 231.06791 
L 319.78314 240.824741 
L 323.062479 236.023561 
L 326.341818 253.307407 
L 329.621157 254.5139 
L 332.900496 252.755658 
L 336.179835 258.670322 
L 339.459174 222.524229 
L 342.738512 188.971025 
L 346.017851 205.970303 
L 349.29719 261.145209 
L 352.576529 255.193536 
L 355.855868 260.659405 
L 359.135207 264.782247 
L 362.414545 251.640291 
L 365.693884 235.431626 
L 368.973223 223.749413 
L 372.252562 253.645652 
L 375.531901 260.012495 
L 378.81124 206.991642 
L 382.090579 175.485959 
L 385.369917 198.227818 
L 388.649256 241.756837 
L 391.928595 253.673878 
L 395.207934 256.968346 
L 398.487273 265.250891 
" clip-path="url(#p5618884587)" style="fill: none; stroke-dasharray: 5.55,2.4; stroke-dashoffset: 0; stroke: #2ca02c; stroke-width: 1.5"/>
   </g>
   <g id="patch_3">
    <path d="M 57.6 307.584 
L 57.6 41.472 
" style="fill: none; stroke: #000000; stroke-width: 0.8; stroke-linejoin: miter; stroke-linecap: square"/>
   </g>
   <g id="patch_4">
    <path d="M 414.72 307.584 
L 414.72 41.472 
" style="fill: none; stroke: #000000; stroke-width: 0.8; stroke-linejoin: miter; stroke-linecap: square"/>
   </g>
   <g id="patch_5">
    <path d="M 57.6 307.584 
L 414.72 307.584 
" style="fill: none; stroke: #000000; stroke-width: 0.8; stroke-linejoin: miter; stroke-linecap: square"/>
   </g>
   <g id="patch_6">
    <path d="M 57.6 41.472 
L 414.72 41.472 
" style="fill: none; stroke: #000000; stroke-width: 0.8; stroke-linejoin: miter; stroke-linecap: square"/>
   </g>
   <g id="legend_1">
    <g id="patch_7">
     <path d="M 338.743438 93.506375 
L 407.72 93.506375 
Q 409.72 93.506375 409.72 91.506375 
L 409.72 48.472 
Q 409.72 46.472 407.72 46.472 
L 338.743438 46.472 
Q 336.743438 46.472 336.743438 48.472 
L 336.743438 91.506375 
Q 336.743438 93.506375 338.743438 93.506375 
z
" style="fill: #ffffff; opacity: 0.8; stroke: #cccccc; stroke-linejoin: miter"/>
    </g>
    <g id="line2d_4">
     <path d="M 340.743438 54.570438 
L 350.743438 54.570438 
L 360.743438 54.570438 
" style="fill: none; stroke: #1f77b4; stroke-width: 1.5; stroke-linecap: square"/>
    </g>
    <g id="text_1">
     <!-- h = 1 -->
     <g transform="translate(368.743438 58.070438) scale(0.1 -0.1)">
      <defs>
       <path id="DejaVuSans-68" d="M 3513 2113 
L 3513 0 
L 2938 0 
L 2938 2094 
Q 2938 2591 2744 2837 
Q 2550 3084 2163 3084 
Q 1697 3084 1428 2787 
Q 1159 2491 1159 1978 
L 1159 0 
L 581 0 
L 581 4863 
L 1159 4863 
L 1159 2956 
Q 1366 3272 1645 3428 
Q 1925 3584 2291 3584 
Q 2894 3584 3203 3211 
Q 3513 2838 3513 2113 
z
" transform="scale(0.015625)"/>
       <path id="DejaVuSans-20" transform="scale(0.015625)"/>
       <path id="DejaVuSans-3d" d="M 678 2906 
L 4684 2906 
L 4684 2381 
L 678 2381 
L 678 2906 
z
M 678 1631 
L 4684 1631 
L 4684 1100 
L 678 1100 
L 678 1631 
z
" transform="scale(0.015625)"/>
       <path id="DejaVuSans-31" d="M 794 531 
L 1825 531 
L 1825 4091 
L 703 3866 
L 703 4441 
L 1819 4666 
L 2450 4666 
L 2450 531 
L 3481 531 
L 3481 0 
L 794 0 
L 794 531 
z
" transform="scale(0.015625)"/>
      </defs>
      <use xlink:href="#DejaVuSans-68"/>
      <use xlink:href="#DejaVuSans-20" x="63.378906"/>
      <use xlink:href="#DejaVuSans-3d" x="95.166016"/>
      <use xlink:href="#DejaVuSans-20" x="178.955078"/>
      <use xlink:href="#DejaVuSans-31" x="210.742188"/>
     </g>
    </g>
    <g id="line2d_5">
     <path d="M 340.743438 69.248563 
L 350.743438 69.248563 
L 360.743438 69.248563 
" style="fill: none; stroke-dasharray: 1.5,2.475; stroke-dashoffset: 0; stroke: #ff7f0e; stroke-width: 1.5"/>
    </g>
    <g id="text_2">
     <!-- h = 5 -->
     <g transform="translate(368.743438 72.748563) scale(0.1 -0.1)">
      <defs>
       <path id="DejaVuSans-35" d="M 691 4666 
L 3169 4666 
L 3169 4134 
L 1269 4134 
L 1269 2991 
Q 1406 3038 1543 3061 
Q 1681 3084 1819 3084 
Q 2600 3084 3056 2656 
Q 3513 2228 3513 1497 
Q 3513 744 3044 326 
Q 2575 -91 1722 -91 
Q 1428 -91 1123 -41 
Q 819 9 494 109 
L 494 744 
Q 775 591 1075 516 
Q 1375 441 1709 441 
Q 2250 441 2565 725 
Q 2881 1009 2881 1497 
Q 2881 1984 2565 2268 
Q 2250 2553 1709 2553 
Q 1456 2553 1204 2497 
Q 953 2441 691 2322 
L 691 4666 
z
" transform="scale(0.015625)"/>
      </defs>
      <use xlink:href="#DejaVuSans-68"/>
      <use xlink:href="#DejaVuSans-20" x="63.378906"/>
      <use xlink:href="#DejaVuSans-3d" x="95.166016"/>
      <use xlink:href="#DejaVuSans-20" x="178.955078"/>
      <use xlink:href="#DejaVuSans-35" x="210.742188"/>
     </g>
    </g>
    <g id="line2d_6">
     <path d="M 340.743438 83.926688 
L 350.743438 83.926688 
L 360.743438 83.926688 
" style="fill: none; stroke-dasharray: 5.55,2.4; stroke-dashoffset: 0; stroke: #2ca02c; stroke-width: 1.5"/>
    </g>
    <g id="text_3">
     <!-- h = 0.5 -->
     <g transform="translate(368.743438 87.426688) scale(0.1 -0.1)">
      <defs>
       <path id="DejaVuSans-30" d="M 2034 4250 
Q 1547 4250 1301 3770 
Q 1056 3291 1056 2328 
Q 1056 1369 1301 889 
Q 1547 409 2034 409 
Q 2525 409 2770 889 
Q 3016 1369 3016 2328 
Q 3016 3291 2770 3770 
Q 2525 4250 2034 4250 
z
M 2034 4750 
Q 2819 4750 3233 4129 
Q 3647 3509 3647 2328 
Q 3647 1150 3233 529 
Q 2819 -91 2034 -91 
Q 1250 -91 836 529 
Q 422 1150 422 2328 
Q 422 3509 836 4129 
Q 1250 4750 2034 4750 
z
" transform="scale(0.015625)"/>
       <path id="DejaVuSans-2e" d="M 684 794 
L 1344 794 
L 1344 0 
L 684 0 
L 684 794 
z
" transform="scale(0.015625)"/>
      </defs>
      <use xlink:href="#DejaVuSans-68"/>
      <use xlink:href="#DejaVuSans-20" x="63.378906"/>
      <use xlink:href="#DejaVuSans-3d" x="95.166016"/>
      <use xlink:href="#DejaVuSans-20" x="178.955078"/>
      <use xlink:href="#DejaVuSans-30" x="210.742188"/>
      <use xlink:href="#DejaVuSans-2e" x="274.365234"/>
      <use xlink:href="#DejaVuSans-35" x="306.152344"/>
     </g>
    </g>
   </g>
  </g>
 </g>
 <defs>
  <clipPath id="p5618884587">
   <rect x="57.6" y="41.472" width="357.12" height="266.112"/>
  </clipPath>
 </defs>
</svg>
