<?xml version="1.0" encoding="utf-8" standalone="no"?>
<!DOCTYPE svg PUBLIC "-//W3C//DTD SVG 1.1//EN"
  "http://www.w3.org/Graphics/SVG/1.1/DTD/svg11.dtd">
<svg xmlns:xlink="http://www.w3.org/1999/xlink" width="1440pt" height="360pt" viewBox="0 0 1440 360" xmlns="http://www.w3.org/2000/svg" version="1.1">
 <metadata>
  <rdf:RDF xmlns:dc="http://purl.org/dc/elements/1.1/" xmlns:cc="http://creativecommons.org/ns#" xmlns:rdf="http://www.w3.org/1999/02/22-rdf-syntax-ns#">
   <cc:Work>
    <dc:type rdf:resource="http://purl.org/dc/dcmitype/StillImage"/>
    <dc:date>2025-04-07T15:32:23.682255</dc:date>
    <dc:format>image/svg+xml</dc:format>
    <dc:creator>
     <cc:Agent>
      <dc:title>Matplotlib v3.7.1, https://matplotlib.org/</dc:title>
     </cc:Agent>
    </dc:creator>
   </cc:Work>
  </rdf:RDF>
 </metadata>
 <defs>
  <style type="text/css">*{stroke-linejoin: round; stroke-linecap: butt}</style>
 </defs>
 <g id="figure_1">
  <g id="patch_1">
   <path d="M 0 360 
L 1440 360 
L 1440 0 
L 0 0 
z
" style="fill: #ffffff"/>
  </g>
  <g id="axes_1">
   <g id="patch_2">
    <path d="M 10.8 116.4 
L 285.84 116.4 
L 285.84 10.8 
L 10.8 10.8 
z
" style="fill: #ffffff"/>
   </g>
   <g id="matplotlib.axis_1"/>
   <g id="matplotlib.axis_2"/>
   <g id="line2d_1">
    <path d="M 23.301818 94.182278 
L 25.802182 96.308861 
L 28.302545 98.840506 
L 30.802909 100.460759 
L 33.303273 86.182278 
L 35.803636 95.194937 
L 38.304 91.650633 
L 40.804364 93.979747 
L 43.304727 81.118987 
L 45.805091 51.853165 
L 48.305455 37.878481 
L 50.805818 38.992405 
L 53.306182 58.232911 
L 55.806545 72.713924 
L 58.306909 76.460759 
L 60.807273 71.498734 
L 63.307636 56.207595 
L 65.808 63.093671 
L 68.308364 62.992405 
L 70.808727 74.334177 
L 73.309091 74.131646 
L 75.809455 54.38481 
L 78.309818 32.005063 
L 80.810182 21.372152 
L 83.310545 41.929114 
L 85.810909 56.005063 
L 88.311273 56.106329 
L 90.811636 56.005063 
L 93.312 42.03038 
L 95.812364 58.334177 
L 98.312727 62.283544 
L 100.813091 73.422785 
L 103.313455 67.549367 
L 105.813818 27.448101 
L 108.314182 15.6 
L 110.814545 23.498734 
L 113.314909 49.625316 
L 115.815273 58.637975 
L 118.315636 54.587342 
L 120.816 61.878481 
L 123.316364 62.081013 
L 125.816727 66.334177 
L 128.317091 72.511392 
L 130.817455 72.612658 
L 133.317818 61.16962 
L 135.818182 42.941772 
L 138.318545 32.511392 
L 140.818909 44.967089 
L 143.319273 56.713924 
L 145.819636 60.359494 
L 148.32 68.663291 
L 150.820364 63.701266 
L 153.320727 59.853165 
L 155.821091 68.359494 
L 158.321455 72.612658 
L 160.821818 79.802532 
L 163.322182 70.081013 
L 165.822545 42.232911 
L 168.322909 43.549367 
L 170.823273 54.891139 
L 173.323636 68.460759 
L 175.824 59.043038 
L 178.324364 84.764557 
L 180.824727 88.713924 
L 183.325091 78.789873 
L 185.825455 83.043038 
L 188.325818 83.24557 
L 190.826182 93.372152 
L 193.326545 89.220253 
L 195.826909 76.764557 
L 198.327273 57.321519 
L 200.827636 71.397468 
L 203.328 90.941772 
L 205.828364 95.093671 
L 208.328727 89.220253 
L 210.829091 94.081013 
L 213.329455 91.043038 
L 215.829818 100.258228 
L 218.330182 100.663291 
L 220.830545 99.448101 
L 223.330909 102.486076 
L 225.831273 82.435443 
L 228.331636 63.903797 
L 230.832 73.321519 
L 233.332364 103.903797 
L 235.832727 100.967089 
L 238.333091 104.410127 
L 240.833455 107.144304 
L 243.333818 100.359494 
L 245.834182 91.853165 
L 248.334545 85.777215 
L 250.834909 102.587342 
L 253.335273 106.435443 
L 255.835636 77.574684 
L 258.336 60.562025 
L 260.836364 73.422785 
L 263.336727 97.726582 
L 265.837091 104.612658 
L 268.337455 106.739241 
L 270.837818 111.6 
" clip-path="url(#p8bf77c310d)" style="fill: none; stroke: #107d79; stroke-width: 1.5; stroke-linecap: square"/>
   </g>
   <g id="patch_3">
    <path d="M 10.8 116.4 
L 10.8 10.8 
" style="fill: none; stroke: #000000; stroke-width: 0.8; stroke-linejoin: miter; stroke-linecap: square"/>
   </g>
   <g id="patch_4">
    <path d="M 285.84 116.4 
L 285.84 10.8 
" style="fill: none; stroke: #000000; stroke-width: 0.8; stroke-linejoin: miter; stroke-linecap: square"/>
   </g>
   <g id="patch_5">
    <path d="M 10.8 116.4 
L 285.84 116.4 
" style="fill: none; stroke: #000000; stroke-width: 0.8; stroke-linejoin: miter; stroke-linecap: square"/>
   </g>
   <g id="patch_6">
    <path d="M 10.8 10.8 
L 285.84 10.8 
" style="fill: none; stroke: #000000; stroke-width: 0.8; stroke-linejoin: miter; stroke-linecap: square"/>
   </g>
   <g id="legend_1">
    <g id="patch_7">
     <path d="M 156.900938 33.478125 
L 278.84 33.478125 
Q 280.84 33.478125 280.84 31.478125 
L 280.84 17.8 
Q 280.84 15.8 278.84 15.8 
L 156.900938 15.8 
Q 154.900938 15.8 154.900938 17.8 
L 154.900938 31.478125 
Q 154.900938 33.478125 156.900938 33.478125 
z
" style="fill: #ffffff; opacity: 0.8; stroke: #cccccc; stroke-linejoin: miter"/>
    </g>
    <g id="line2d_2">
     <path d="M 158.900938 23.898438 
L 168.900938 23.898438 
L 178.900938 23.898438 
" style="fill: none; stroke: #107d79; stroke-width: 1.5; stroke-linecap: square"/>
    </g>
    <g id="text_1">
     <!-- no transformation -->
     <g transform="translate(186.900938 27.398438) scale(0.1 -0.1)">
      <defs>
       <path id="DejaVuSans-6e" d="M 3513 2113 
L 3513 0 
L 2938 0 
L 2938 2094 
Q 2938 2591 2744 2837 
Q 2550 3084 2163 3084 
Q 1697 3084 1428 2787 
Q 1159 2491 1159 1978 
L 1159 0 
L 581 0 
L 581 3500 
L 1159 3500 
L 1159 2956 
Q 1366 3272 1645 3428 
Q 1925 3584 2291 3584 
Q 2894 3584 3203 3211 
Q 3513 2838 3513 2113 
z
" transform="scale(0.015625)"/>
       <path id="DejaVuSans-6f" d="M 1959 3097 
Q 1497 3097 1228 2736 
Q 959 2375 959 1747 
Q 959 1119 1226 758 
Q 1494 397 1959 397 
Q 2419 397 2687 759 
Q 2956 1122 2956 1747 
Q 2956 2369 2687 2733 
Q 2419 3097 1959 3097 
z
M 1959 3584 
Q 2709 3584 3137 3096 
Q 3566 2609 3566 1747 
Q 3566 888 3137 398 
Q 2709 -91 1959 -91 
Q 1206 -91 779 398 
Q 353 888 353 1747 
Q 353 2609 779 3096 
Q 1206 3584 1959 3584 
z
" transform="scale(0.015625)"/>
       <path id="DejaVuSans-20" transform="scale(0.015625)"/>
       <path id="DejaVuSans-74" d="M 1172 4494 
L 1172 3500 
L 2356 3500 
L 2356 3053 
L 1172 3053 
L 1172 1153 
Q 1172 725 1289 603 
Q 1406 481 1766 481 
L 2356 481 
L 2356 0 
L 1766 0 
Q 1100 0 847 248 
Q 594 497 594 1153 
L 594 3053 
L 172 3053 
L 172 3500 
L 594 3500 
L 594 4494 
L 1172 4494 
z
" transform="scale(0.015625)"/>
       <path id="DejaVuSans-72" d="M 2631 2963 
Q 2534 3019 2420 3045 
Q 2306 3072 2169 3072 
Q 1681 3072 1420 2755 
Q 1159 2438 1159 1844 
L 1159 0 
L 581 0 
L 581 3500 
L 1159 3500 
L 1159 2956 
Q 1341 3275 1631 3429 
Q 1922 3584 2338 3584 
Q 2397 3584 2469 3576 
Q 2541 3569 2628 3553 
L 2631 2963 
z
" transform="scale(0.015625)"/>
       <path id="DejaVuSans-61" d="M 2194 1759 
Q 1497 1759 1228 1600 
Q 959 1441 959 1056 
Q 959 750 1161 570 
Q 1363 391 1709 391 
Q 2188 391 2477 730 
Q 2766 1069 2766 1631 
L 2766 1759 
L 2194 1759 
z
M 3341 1997 
L 3341 0 
L 2766 0 
L 2766 531 
Q 2569 213 2275 61 
Q 1981 -91 1556 -91 
Q 1019 -91 701 211 
Q 384 513 384 1019 
Q 384 1609 779 1909 
Q 1175 2209 1959 2209 
L 2766 2209 
L 2766 2266 
Q 2766 2663 2505 2880 
Q 2244 3097 1772 3097 
Q 1472 3097 1187 3025 
Q 903 2953 641 2809 
L 641 3341 
Q 956 3463 1253 3523 
Q 1550 3584 1831 3584 
Q 2591 3584 2966 3190 
Q 3341 2797 3341 1997 
z
" transform="scale(0.015625)"/>
       <path id="DejaVuSans-73" d="M 2834 3397 
L 2834 2853 
Q 2591 2978 2328 3040 
Q 2066 3103 1784 3103 
Q 1356 3103 1142 2972 
Q 928 2841 928 2578 
Q 928 2378 1081 2264 
Q 1234 2150 1697 2047 
L 1894 2003 
Q 2506 1872 2764 1633 
Q 3022 1394 3022 966 
Q 3022 478 2636 193 
Q 2250 -91 1575 -91 
Q 1294 -91 989 -36 
Q 684 19 347 128 
L 347 722 
Q 666 556 975 473 
Q 1284 391 1588 391 
Q 1994 391 2212 530 
Q 2431 669 2431 922 
Q 2431 1156 2273 1281 
Q 2116 1406 1581 1522 
L 1381 1569 
Q 847 1681 609 1914 
Q 372 2147 372 2553 
Q 372 3047 722 3315 
Q 1072 3584 1716 3584 
Q 2034 3584 2315 3537 
Q 2597 3491 2834 3397 
z
" transform="scale(0.015625)"/>
       <path id="DejaVuSans-66" d="M 2375 4863 
L 2375 4384 
L 1825 4384 
Q 1516 4384 1395 4259 
Q 1275 4134 1275 3809 
L 1275 3500 
L 2222 3500 
L 2222 3053 
L 1275 3053 
L 1275 0 
L 697 0 
L 697 3053 
L 147 3053 
L 147 3500 
L 697 3500 
L 697 3744 
Q 697 4328 969 4595 
Q 1241 4863 1831 4863 
L 2375 4863 
z
" transform="scale(0.015625)"/>
       <path id="DejaVuSans-6d" d="M 3328 2828 
Q 3544 3216 3844 3400 
Q 4144 3584 4550 3584 
Q 5097 3584 5394 3201 
Q 5691 2819 5691 2113 
L 5691 0 
L 5113 0 
L 5113 2094 
Q 5113 2597 4934 2840 
Q 4756 3084 4391 3084 
Q 3944 3084 3684 2787 
Q 3425 2491 3425 1978 
L 3425 0 
L 2847 0 
L 2847 2094 
Q 2847 2600 2669 2842 
Q 2491 3084 2119 3084 
Q 1678 3084 1418 2786 
Q 1159 2488 1159 1978 
L 1159 0 
L 581 0 
L 581 3500 
L 1159 3500 
L 1159 2956 
Q 1356 3278 1631 3431 
Q 1906 3584 2284 3584 
Q 2666 3584 2933 3390 
Q 3200 3197 3328 2828 
z
" transform="scale(0.015625)"/>
       <path id="DejaVuSans-69" d="M 603 3500 
L 1178 3500 
L 1178 0 
L 603 0 
L 603 3500 
z
M 603 4863 
L 1178 4863 
L 1178 4134 
L 603 4134 
L 603 4863 
z
" transform="scale(0.015625)"/>
      </defs>
      <use xlink:href="#DejaVuSans-6e"/>
      <use xlink:href="#DejaVuSans-6f" x="63.378906"/>
      <use xlink:href="#DejaVuSans-20" x="124.560547"/>
      <use xlink:href="#DejaVuSans-74" x="156.347656"/>
      <use xlink:href="#DejaVuSans-72" x="195.556641"/>
      <use xlink:href="#DejaVuSans-61" x="236.669922"/>
      <use xlink:href="#DejaVuSans-6e" x="297.949219"/>
      <use xlink:href="#DejaVuSans-73" x="361.328125"/>
      <use xlink:href="#DejaVuSans-66" x="413.427734"/>
      <use xlink:href="#DejaVuSans-6f" x="448.632812"/>
      <use xlink:href="#DejaVuSans-72" x="509.814453"/>
      <use xlink:href="#DejaVuSans-6d" x="549.177734"/>
      <use xlink:href="#DejaVuSans-61" x="646.589844"/>
      <use xlink:href="#DejaVuSans-74" x="707.869141"/>
      <use xlink:href="#DejaVuSans-69" x="747.078125"/>
      <use xlink:href="#DejaVuSans-6f" x="774.861328"/>
      <use xlink:href="#DejaVuSans-6e" x="836.042969"/>
     </g>
    </g>
   </g>
  </g>
  <g id="axes_2">
   <g id="patch_8">
    <path d="M 296.64 116.4 
L 571.68 116.4 
L 571.68 10.8 
L 296.64 10.8 
z
" style="fill: #ffffff"/>
   </g>
   <g id="matplotlib.axis_3"/>
   <g id="matplotlib.axis_4"/>
   <g id="line2d_3">
    <path d="M 309.141818 88.772443 
L 311.642182 93.072896 
L 314.142545 97.882931 
L 316.642909 101.510844 
L 319.143273 84.709197 
L 321.643636 97.800768 
L 324.144 94.752245 
L 326.644364 99.232328 
L 329.144727 84.198183 
L 331.645091 48.097567 
L 334.145455 31.641179 
L 336.645818 34.564434 
L 339.146182 60.492529 
L 341.646545 80.120627 
L 344.146909 85.788998 
L 346.647273 80.15311 
L 349.147636 61.196549 
L 351.648 70.722694 
L 354.148364 71.325724 
L 356.648727 86.682189 
L 359.149091 87.225473 
L 361.649455 62.609051 
L 364.149818 34.490922 
L 366.650182 21.326308 
L 369.150545 48.126684 
L 371.650909 66.589584 
L 374.151273 67.1431 
L 376.651636 67.466032 
L 379.152 49.957553 
L 381.652364 71.256159 
L 384.152727 76.538664 
L 386.653091 90.839414 
L 389.153455 83.083312 
L 391.653818 31.229901 
L 394.154182 15.6 
L 396.654545 25.328603 
L 399.154909 58.480383 
L 401.655273 69.670037 
L 404.155636 64.078142 
L 406.656 73.022601 
L 409.156364 72.809322 
L 411.656727 77.743139 
L 414.157091 85.140618 
L 416.657455 84.795923 
L 419.157818 69.733684 
L 421.658182 46.049075 
L 424.158545 32.419799 
L 426.658909 48.192372 
L 429.159273 63.066131 
L 431.659636 67.521346 
L 434.16 77.895427 
L 436.660364 71.169186 
L 439.160727 65.85191 
L 441.661091 76.378114 
L 444.161455 81.395769 
L 446.661818 90.10395 
L 449.162182 76.990144 
L 451.662545 40.50019 
L 454.162909 41.378179 
L 456.663273 55.063379 
L 459.163636 71.541698 
L 461.664 58.450781 
L 464.164364 90.451934 
L 466.664727 94.463518 
L 469.165091 80.63541 
L 471.665455 85.035528 
L 474.165818 84.309241 
L 476.666182 96.423581 
L 479.166545 90.268731 
L 481.666909 73.470915 
L 484.167273 47.728255 
L 486.667636 65.075668 
L 489.168 89.484361 
L 491.668364 94.149172 
L 494.168727 85.987718 
L 496.669091 91.683982 
L 499.169455 87.313748 
L 501.669818 98.735785 
L 504.170182 98.873077 
L 506.670545 96.937835 
L 509.170909 100.481722 
L 511.671273 74.425979 
L 514.171636 50.379202 
L 516.672 62.291977 
L 519.172364 101.472141 
L 521.672727 97.703787 
L 524.173091 102.186595 
L 526.673455 105.77892 
L 529.173818 97.141 
L 531.674182 86.271549 
L 534.174545 78.48284 
L 536.674909 100.074198 
L 539.175273 105.018636 
L 541.675636 67.960117 
L 544.176 46.115153 
L 546.676364 62.629193 
L 549.176727 93.833996 
L 551.677091 102.667504 
L 554.177455 105.382415 
L 556.677818 111.6 
" clip-path="url(#p4ce4fe08fe)" style="fill: none; stroke: #107d79; stroke-width: 1.5; stroke-linecap: square"/>
   </g>
   <g id="patch_9">
    <path d="M 296.64 116.4 
L 296.64 10.8 
" style="fill: none; stroke: #000000; stroke-width: 0.8; stroke-linejoin: miter; stroke-linecap: square"/>
   </g>
   <g id="patch_10">
    <path d="M 571.68 116.4 
L 571.68 10.8 
" style="fill: none; stroke: #000000; stroke-width: 0.8; stroke-linejoin: miter; stroke-linecap: square"/>
   </g>
   <g id="patch_11">
    <path d="M 296.64 116.4 
L 571.68 116.4 
" style="fill: none; stroke: #000000; stroke-width: 0.8; stroke-linejoin: miter; stroke-linecap: square"/>
   </g>
   <g id="patch_12">
    <path d="M 296.64 10.8 
L 571.68 10.8 
" style="fill: none; stroke: #000000; stroke-width: 0.8; stroke-linejoin: miter; stroke-linecap: square"/>
   </g>
   <g id="legend_2">
    <g id="patch_13">
     <path d="M 505.453438 33.478125 
L 564.68 33.478125 
Q 566.68 33.478125 566.68 31.478125 
L 566.68 17.8 
Q 566.68 15.8 564.68 15.8 
L 505.453438 15.8 
Q 503.453438 15.8 503.453438 17.8 
L 503.453438 31.478125 
Q 503.453438 33.478125 505.453438 33.478125 
z
" style="fill: #ffffff; opacity: 0.8; stroke: #cccccc; stroke-linejoin: miter"/>
    </g>
    <g id="line2d_4">
     <path d="M 507.453438 23.898438 
L 517.453438 23.898438 
L 527.453438 23.898438 
" style="fill: none; stroke: #107d79; stroke-width: 1.5; stroke-linecap: square"/>
    </g>
    <g id="text_2">
     <!-- f(0.5) -->
     <g transform="translate(535.453438 27.398438) scale(0.1 -0.1)">
      <defs>
       <path id="DejaVuSans-28" d="M 1984 4856 
Q 1566 4138 1362 3434 
Q 1159 2731 1159 2009 
Q 1159 1288 1364 580 
Q 1569 -128 1984 -844 
L 1484 -844 
Q 1016 -109 783 600 
Q 550 1309 550 2009 
Q 550 2706 781 3412 
Q 1013 4119 1484 4856 
L 1984 4856 
z
" transform="scale(0.015625)"/>
       <path id="DejaVuSans-30" d="M 2034 4250 
Q 1547 4250 1301 3770 
Q 1056 3291 1056 2328 
Q 1056 1369 1301 889 
Q 1547 409 2034 409 
Q 2525 409 2770 889 
Q 3016 1369 3016 2328 
Q 3016 3291 2770 3770 
Q 2525 4250 2034 4250 
z
M 2034 4750 
Q 2819 4750 3233 4129 
Q 3647 3509 3647 2328 
Q 3647 1150 3233 529 
Q 2819 -91 2034 -91 
Q 1250 -91 836 529 
Q 422 1150 422 2328 
Q 422 3509 836 4129 
Q 1250 4750 2034 4750 
z
" transform="scale(0.015625)"/>
       <path id="DejaVuSans-2e" d="M 684 794 
L 1344 794 
L 1344 0 
L 684 0 
L 684 794 
z
" transform="scale(0.015625)"/>
       <path id="DejaVuSans-35" d="M 691 4666 
L 3169 4666 
L 3169 4134 
L 1269 4134 
L 1269 2991 
Q 1406 3038 1543 3061 
Q 1681 3084 1819 3084 
Q 2600 3084 3056 2656 
Q 3513 2228 3513 1497 
Q 3513 744 3044 326 
Q 2575 -91 1722 -91 
Q 1428 -91 1123 -41 
Q 819 9 494 109 
L 494 744 
Q 775 591 1075 516 
Q 1375 441 1709 441 
Q 2250 441 2565 725 
Q 2881 1009 2881 1497 
Q 2881 1984 2565 2268 
Q 2250 2553 1709 2553 
Q 1456 2553 1204 2497 
Q 953 2441 691 2322 
L 691 4666 
z
" transform="scale(0.015625)"/>
       <path id="DejaVuSans-29" d="M 513 4856 
L 1013 4856 
Q 1481 4119 1714 3412 
Q 1947 2706 1947 2009 
Q 1947 1309 1714 600 
Q 1481 -109 1013 -844 
L 513 -844 
Q 928 -128 1133 580 
Q 1338 1288 1338 2009 
Q 1338 2731 1133 3434 
Q 928 4138 513 4856 
z
" transform="scale(0.015625)"/>
      </defs>
      <use xlink:href="#DejaVuSans-66"/>
      <use xlink:href="#DejaVuSans-28" x="35.205078"/>
      <use xlink:href="#DejaVuSans-30" x="74.21875"/>
      <use xlink:href="#DejaVuSans-2e" x="137.841797"/>
      <use xlink:href="#DejaVuSans-35" x="169.628906"/>
      <use xlink:href="#DejaVuSans-29" x="233.251953"/>
     </g>
    </g>
   </g>
  </g>
  <g id="axes_3">
   <g id="patch_14">
    <path d="M 582.48 116.4 
L 857.52 116.4 
L 857.52 10.8 
L 582.48 10.8 
z
" style="fill: #ffffff"/>
   </g>
   <g id="matplotlib.axis_5"/>
   <g id="matplotlib.axis_6"/>
   <g id="line2d_5">
    <path d="M 594.981818 62.4097 
L 597.482182 64.37602 
L 599.982545 66.64748 
L 602.482909 68.232376 
L 604.983273 57.840532 
L 607.483636 64.99423 
L 609.984 62.688593 
L 612.484364 64.807483 
L 614.984727 55.483629 
L 617.485091 33.801611 
L 619.985455 23.638622 
L 622.485818 24.842093 
L 624.986182 39.700572 
L 627.486545 50.973658 
L 629.986909 54.160538 
L 632.487273 50.786911 
L 634.987636 39.632218 
L 637.488 45.183932 
L 639.988364 45.471983 
L 642.488727 54.380235 
L 644.989091 54.592002 
L 647.489455 40.08077 
L 649.989818 23.586129 
L 652.490182 15.940544 
L 654.990545 31.790728 
L 657.490909 42.758674 
L 659.991273 43.199295 
L 662.491636 43.487347 
L 664.992 33.324358 
L 667.492364 45.970573 
L 669.992727 49.310023 
L 672.493091 58.065705 
L 674.993455 54.005514 
L 677.493818 24.161004 
L 679.994182 15.6 
L 682.494545 21.914563 
L 684.994909 41.96042 
L 687.495273 49.114118 
L 689.995636 46.427056 
L 692.496 52.283909 
L 694.996364 52.800815 
L 697.496727 56.36912 
L 699.997091 61.386839 
L 702.497455 61.82746 
L 704.997818 53.571596 
L 707.498182 40.204639 
L 709.998545 32.711624 
L 712.498909 42.45901 
L 714.999273 51.672402 
L 717.499636 54.782997 
L 720 61.4027 
L 722.500364 58.029073 
L 725.000727 55.494581 
L 727.501091 62.266854 
L 730.001455 65.835159 
L 732.501818 71.615727 
L 735.002182 64.656707 
L 737.502545 44.042679 
L 740.002909 45.398719 
L 742.503273 54.306971 
L 745.003636 64.893493 
L 747.504 58.163327 
L 750.004364 77.904044 
L 752.504727 81.243494 
L 755.005091 74.131904 
L 757.505455 77.700209 
L 760.005818 78.217115 
L 762.506182 86.209947 
L 765.006545 83.4466 
L 767.506909 74.427886 
L 770.007273 60.145509 
L 772.507636 71.113455 
L 775.008 86.200789 
L 777.508364 89.692809 
L 780.008727 85.632617 
L 782.509091 89.658632 
L 785.009455 87.734419 
L 787.509818 95.040687 
L 790.010182 95.710163 
L 792.510545 95.15908 
L 795.010909 97.811965 
L 797.511273 83.071878 
L 800.011636 69.476066 
L 802.512 76.934904 
L 805.012364 100.337299 
L 807.512727 98.489372 
L 810.013091 101.447397 
L 812.513455 103.871427 
L 815.013818 99.124671 
L 817.514182 93.08107 
L 820.014545 88.868308 
L 822.514909 101.895948 
L 825.015273 105.159113 
L 827.515636 83.782235 
L 830.016 71.330697 
L 832.516364 81.383224 
L 835.016727 100.055951 
L 837.517091 105.607665 
L 840.017455 107.573986 
L 842.517818 111.6 
" clip-path="url(#p11dee5748e)" style="fill: none; stroke: #107d79; stroke-width: 1.5; stroke-linecap: square"/>
   </g>
   <g id="patch_15">
    <path d="M 582.48 116.4 
L 582.48 10.8 
" style="fill: none; stroke: #000000; stroke-width: 0.8; stroke-linejoin: miter; stroke-linecap: square"/>
   </g>
   <g id="patch_16">
    <path d="M 857.52 116.4 
L 857.52 10.8 
" style="fill: none; stroke: #000000; stroke-width: 0.8; stroke-linejoin: miter; stroke-linecap: square"/>
   </g>
   <g id="patch_17">
    <path d="M 582.48 116.4 
L 857.52 116.4 
" style="fill: none; stroke: #000000; stroke-width: 0.8; stroke-linejoin: miter; stroke-linecap: square"/>
   </g>
   <g id="patch_18">
    <path d="M 582.48 10.8 
L 857.52 10.8 
" style="fill: none; stroke: #000000; stroke-width: 0.8; stroke-linejoin: miter; stroke-linecap: square"/>
   </g>
   <g id="legend_3">
    <g id="patch_19">
     <path d="M 784.8575 33.478125 
L 850.52 33.478125 
Q 852.52 33.478125 852.52 31.478125 
L 852.52 17.8 
Q 852.52 15.8 850.52 15.8 
L 784.8575 15.8 
Q 782.8575 15.8 782.8575 17.8 
L 782.8575 31.478125 
Q 782.8575 33.478125 784.8575 33.478125 
z
" style="fill: #ffffff; opacity: 0.8; stroke: #cccccc; stroke-linejoin: miter"/>
    </g>
    <g id="line2d_6">
     <path d="M 786.8575 23.898438 
L 796.8575 23.898438 
L 806.8575 23.898438 
" style="fill: none; stroke: #107d79; stroke-width: 1.5; stroke-linecap: square"/>
    </g>
    <g id="text_3">
     <!-- g(-0.5) -->
     <g transform="translate(814.8575 27.398438) scale(0.1 -0.1)">
      <defs>
       <path id="DejaVuSans-67" d="M 2906 1791 
Q 2906 2416 2648 2759 
Q 2391 3103 1925 3103 
Q 1463 3103 1205 2759 
Q 947 2416 947 1791 
Q 947 1169 1205 825 
Q 1463 481 1925 481 
Q 2391 481 2648 825 
Q 2906 1169 2906 1791 
z
M 3481 434 
Q 3481 -459 3084 -895 
Q 2688 -1331 1869 -1331 
Q 1566 -1331 1297 -1286 
Q 1028 -1241 775 -1147 
L 775 -588 
Q 1028 -725 1275 -790 
Q 1522 -856 1778 -856 
Q 2344 -856 2625 -561 
Q 2906 -266 2906 331 
L 2906 616 
Q 2728 306 2450 153 
Q 2172 0 1784 0 
Q 1141 0 747 490 
Q 353 981 353 1791 
Q 353 2603 747 3093 
Q 1141 3584 1784 3584 
Q 2172 3584 2450 3431 
Q 2728 3278 2906 2969 
L 2906 3500 
L 3481 3500 
L 3481 434 
z
" transform="scale(0.015625)"/>
       <path id="DejaVuSans-2d" d="M 313 2009 
L 1997 2009 
L 1997 1497 
L 313 1497 
L 313 2009 
z
" transform="scale(0.015625)"/>
      </defs>
      <use xlink:href="#DejaVuSans-67"/>
      <use xlink:href="#DejaVuSans-28" x="63.476562"/>
      <use xlink:href="#DejaVuSans-2d" x="102.490234"/>
      <use xlink:href="#DejaVuSans-30" x="138.574219"/>
      <use xlink:href="#DejaVuSans-2e" x="202.197266"/>
      <use xlink:href="#DejaVuSans-35" x="233.984375"/>
      <use xlink:href="#DejaVuSans-29" x="297.607422"/>
     </g>
    </g>
   </g>
  </g>
  <g id="axes_4">
   <g id="patch_20">
    <path d="M 868.32 116.4 
L 1143.36 116.4 
L 1143.36 10.8 
L 868.32 10.8 
z
" style="fill: #ffffff"/>
   </g>
   <g id="matplotlib.axis_7"/>
   <g id="matplotlib.axis_8"/>
   <g id="line2d_7">
    <path d="M 880.821818 111.6 
L 883.322182 111.12801 
L 885.822545 110.959737 
L 888.322909 110.148009 
L 890.823273 97.896219 
L 893.323636 102.443525 
L 895.824 97.960579 
L 898.324364 97.724794 
L 900.824727 86.554008 
L 903.325091 63.563437 
L 905.825455 51.580874 
L 908.325818 50.465454 
L 910.826182 62.715755 
L 913.326545 71.747969 
L 915.826909 73.243191 
L 918.327273 68.599304 
L 920.827636 56.576846 
L 923.328 60.528543 
L 925.828364 59.390179 
L 928.328727 66.430357 
L 930.829091 65.140148 
L 933.329455 49.837916 
L 935.829818 32.774098 
L 938.330182 24.320972 
L 940.830545 38.438014 
L 943.330909 47.902253 
L 945.831273 47.257244 
L 948.331636 46.433211 
L 950.832 35.631319 
L 953.332364 46.728965 
L 955.832727 49.095001 
L 958.333091 56.88213 
L 960.833455 52.647527 
L 963.333818 23.913277 
L 965.834182 15.6 
L 968.334545 21.513439 
L 970.834909 40.542032 
L 973.335273 47.223697 
L 975.835636 44.500489 
L 978.336 49.98054 
L 980.836364 50.414934 
L 983.336727 53.828955 
L 985.837091 58.637212 
L 988.337455 59.000188 
L 990.837818 50.925451 
L 993.338182 37.86094 
L 995.838545 30.367054 
L 998.338909 39.348108 
L 1000.839273 47.805563 
L 1003.339636 50.443313 
L 1005.84 56.507965 
L 1008.340364 53.087687 
L 1010.840727 50.494087 
L 1013.341091 56.825812 
L 1015.841455 60.14575 
L 1018.341818 65.672061 
L 1020.842182 59.131968 
L 1023.342545 39.642839 
L 1025.842909 41.260433 
L 1028.343273 50.176129 
L 1030.843636 60.773023 
L 1033.344 54.863927 
L 1035.844364 74.308192 
L 1038.344727 78.100474 
L 1040.845091 71.924192 
L 1043.345455 75.937138 
L 1045.845818 76.947236 
L 1048.346182 84.999043 
L 1050.846545 82.688697 
L 1053.346909 74.372706 
L 1055.847273 60.991038 
L 1058.347636 71.707093 
L 1060.848 86.319172 
L 1063.348364 89.816182 
L 1065.848727 86.036472 
L 1068.349091 89.90823 
L 1070.849455 88.003 
L 1073.349818 94.86167 
L 1075.850182 95.340436 
L 1078.350545 94.642721 
L 1080.850909 96.98981 
L 1083.351273 82.646123 
L 1085.851636 69.331359 
L 1088.352 76.077105 
L 1090.852364 97.971908 
L 1093.352727 95.610133 
L 1095.853091 97.779129 
L 1098.353455 99.415177 
L 1100.853818 94.200116 
L 1103.354182 87.768105 
L 1105.854545 83.132307 
L 1108.354909 94.995893 
L 1110.855273 97.522419 
L 1113.355636 76.482398 
L 1115.856 63.980142 
L 1118.356364 73.00469 
L 1120.856727 90.27811 
L 1123.357091 95.007094 
L 1125.857455 96.314423 
L 1128.357818 99.601147 
" clip-path="url(#p3a2cadaf87)" style="fill: none; stroke: #107d79; stroke-width: 1.5; stroke-linecap: square"/>
   </g>
   <g id="patch_21">
    <path d="M 868.32 116.4 
L 868.32 10.8 
" style="fill: none; stroke: #000000; stroke-width: 0.8; stroke-linejoin: miter; stroke-linecap: square"/>
   </g>
   <g id="patch_22">
    <path d="M 1143.36 116.4 
L 1143.36 10.8 
" style="fill: none; stroke: #000000; stroke-width: 0.8; stroke-linejoin: miter; stroke-linecap: square"/>
   </g>
   <g id="patch_23">
    <path d="M 868.32 116.4 
L 1143.36 116.4 
" style="fill: none; stroke: #000000; stroke-width: 0.8; stroke-linejoin: miter; stroke-linecap: square"/>
   </g>
   <g id="patch_24">
    <path d="M 868.32 10.8 
L 1143.36 10.8 
" style="fill: none; stroke: #000000; stroke-width: 0.8; stroke-linejoin: miter; stroke-linecap: square"/>
   </g>
   <g id="legend_4">
    <g id="patch_25">
     <path d="M 1074.31625 33.478125 
L 1136.36 33.478125 
Q 1138.36 33.478125 1138.36 31.478125 
L 1138.36 17.8 
Q 1138.36 15.8 1136.36 15.8 
L 1074.31625 15.8 
Q 1072.31625 15.8 1072.31625 17.8 
L 1072.31625 31.478125 
Q 1072.31625 33.478125 1074.31625 33.478125 
z
" style="fill: #ffffff; opacity: 0.8; stroke: #cccccc; stroke-linejoin: miter"/>
    </g>
    <g id="line2d_8">
     <path d="M 1076.31625 23.898438 
L 1086.31625 23.898438 
L 1096.31625 23.898438 
" style="fill: none; stroke: #107d79; stroke-width: 1.5; stroke-linecap: square"/>
    </g>
    <g id="text_4">
     <!-- h(0.5) -->
     <g transform="translate(1104.31625 27.398438) scale(0.1 -0.1)">
      <defs>
       <path id="DejaVuSans-68" d="M 3513 2113 
L 3513 0 
L 2938 0 
L 2938 2094 
Q 2938 2591 2744 2837 
Q 2550 3084 2163 3084 
Q 1697 3084 1428 2787 
Q 1159 2491 1159 1978 
L 1159 0 
L 581 0 
L 581 4863 
L 1159 4863 
L 1159 2956 
Q 1366 3272 1645 3428 
Q 1925 3584 2291 3584 
Q 2894 3584 3203 3211 
Q 3513 2838 3513 2113 
z
" transform="scale(0.015625)"/>
      </defs>
      <use xlink:href="#DejaVuSans-68"/>
      <use xlink:href="#DejaVuSans-28" x="63.378906"/>
      <use xlink:href="#DejaVuSans-30" x="102.392578"/>
      <use xlink:href="#DejaVuSans-2e" x="166.015625"/>
      <use xlink:href="#DejaVuSans-35" x="197.802734"/>
      <use xlink:href="#DejaVuSans-29" x="261.425781"/>
     </g>
    </g>
   </g>
  </g>
  <g id="axes_5">
   <g id="patch_26">
    <path d="M 1154.16 116.4 
L 1429.2 116.4 
L 1429.2 10.8 
L 1154.16 10.8 
z
" style="fill: #ffffff"/>
   </g>
   <g id="matplotlib.axis_9"/>
   <g id="matplotlib.axis_10"/>
   <g id="line2d_9">
    <path d="M 1166.661818 108.97329 
L 1169.162182 95.964736 
L 1171.662545 94.655189 
L 1174.162909 95.350213 
L 1176.663273 92.918085 
L 1179.163636 90.226303 
L 1181.664 84.735827 
L 1184.164364 75.866044 
L 1186.664727 62.895348 
L 1189.165091 53.9019 
L 1191.665455 55.292904 
L 1194.165818 60.856125 
L 1196.666182 51.173481 
L 1199.166545 59.123101 
L 1201.666909 60.706179 
L 1204.167273 51.025084 
L 1206.667636 43.335989 
L 1209.168 38.800103 
L 1211.668364 36.753264 
L 1214.168727 43.659092 
L 1216.669091 52.551775 
L 1219.169455 59.331356 
L 1221.669818 44.191716 
L 1224.170182 25.467799 
L 1226.670545 24.992817 
L 1229.170909 33.872305 
L 1231.671273 29.424724 
L 1234.171636 28.31443 
L 1236.672 19.407699 
L 1239.172364 32.110967 
L 1241.672727 34.862783 
L 1244.173091 42.37871 
L 1246.673455 43.114431 
L 1249.173818 16.295292 
L 1251.674182 15.6 
L 1254.174545 22.316335 
L 1256.674909 37.375226 
L 1259.175273 41.019094 
L 1261.675636 28.882068 
L 1264.176 40.057242 
L 1266.676364 51.098322 
L 1269.176727 45.766966 
L 1271.677091 50.713729 
L 1274.177455 41.480451 
L 1276.677818 34.936593 
L 1279.178182 44.04929 
L 1281.678545 42.486812 
L 1284.178909 50.788498 
L 1286.679273 45.207008 
L 1289.179636 48.153194 
L 1291.68 51.995738 
L 1294.180364 42.245367 
L 1296.680727 44.956604 
L 1299.181091 49.535085 
L 1301.681455 52.895638 
L 1304.181818 57.543717 
L 1306.682182 53.348287 
L 1309.182545 41.351981 
L 1311.682909 59.917016 
L 1314.183273 62.386105 
L 1316.683636 59.9688 
L 1319.184 46.046572 
L 1321.684364 77.58026 
L 1324.184727 82.228875 
L 1326.685091 74.638245 
L 1329.185455 76.056581 
L 1331.685818 76.124039 
L 1334.186182 83.75966 
L 1336.686545 82.859412 
L 1339.186909 95.708207 
L 1341.687273 84.345901 
L 1344.187636 90.967764 
L 1346.688 93.132152 
L 1349.188364 100.322066 
L 1351.688727 82.877721 
L 1354.189091 87.341853 
L 1356.689455 93.180641 
L 1359.189818 107.476482 
L 1361.690182 111.6 
L 1364.190545 97.419117 
L 1366.690909 102.292202 
L 1369.191273 103.365156 
L 1371.691636 97.681857 
L 1374.192 96.17698 
L 1376.692364 111.296092 
L 1379.192727 104.549742 
L 1381.693091 105.912464 
L 1384.193455 104.9675 
L 1386.693818 106.840368 
L 1389.194182 97.098476 
L 1391.694545 94.416693 
L 1394.194909 106.302666 
L 1396.695273 106.148153 
L 1399.195636 94.056647 
L 1401.696 95.318173 
L 1404.196364 98.978771 
L 1406.696727 98.245841 
L 1409.197091 104.492915 
L 1411.697455 107.741288 
L 1414.197818 108.380893 
" clip-path="url(#p6934fefbd6)" style="fill: none; stroke: #107d79; stroke-width: 1.5; stroke-linecap: square"/>
   </g>
   <g id="patch_27">
    <path d="M 1154.16 116.4 
L 1154.16 10.8 
" style="fill: none; stroke: #000000; stroke-width: 0.8; stroke-linejoin: miter; stroke-linecap: square"/>
   </g>
   <g id="patch_28">
    <path d="M 1429.2 116.4 
L 1429.2 10.8 
" style="fill: none; stroke: #000000; stroke-width: 0.8; stroke-linejoin: miter; stroke-linecap: square"/>
   </g>
   <g id="patch_29">
    <path d="M 1154.16 116.4 
L 1429.2 116.4 
" style="fill: none; stroke: #000000; stroke-width: 0.8; stroke-linejoin: miter; stroke-linecap: square"/>
   </g>
   <g id="patch_30">
    <path d="M 1154.16 10.8 
L 1429.2 10.8 
" style="fill: none; stroke: #000000; stroke-width: 0.8; stroke-linejoin: miter; stroke-linecap: square"/>
   </g>
   <g id="legend_5">
    <g id="patch_31">
     <path d="M 1360.703125 33.478125 
L 1422.2 33.478125 
Q 1424.2 33.478125 1424.2 31.478125 
L 1424.2 17.8 
Q 1424.2 15.8 1422.2 15.8 
L 1360.703125 15.8 
Q 1358.703125 15.8 1358.703125 17.8 
L 1358.703125 31.478125 
Q 1358.703125 33.478125 1360.703125 33.478125 
z
" style="fill: #ffffff; opacity: 0.8; stroke: #cccccc; stroke-linejoin: miter"/>
    </g>
    <g id="line2d_10">
     <path d="M 1362.703125 23.898438 
L 1372.703125 23.898438 
L 1382.703125 23.898438 
" style="fill: none; stroke: #107d79; stroke-width: 1.5; stroke-linecap: square"/>
    </g>
    <g id="text_5">
     <!-- k(0.1) -->
     <g transform="translate(1390.703125 27.398438) scale(0.1 -0.1)">
      <defs>
       <path id="DejaVuSans-6b" d="M 581 4863 
L 1159 4863 
L 1159 1991 
L 2875 3500 
L 3609 3500 
L 1753 1863 
L 3688 0 
L 2938 0 
L 1159 1709 
L 1159 0 
L 581 0 
L 581 4863 
z
" transform="scale(0.015625)"/>
       <path id="DejaVuSans-31" d="M 794 531 
L 1825 531 
L 1825 4091 
L 703 3866 
L 703 4441 
L 1819 4666 
L 2450 4666 
L 2450 531 
L 3481 531 
L 3481 0 
L 794 0 
L 794 531 
z
" transform="scale(0.015625)"/>
      </defs>
      <use xlink:href="#DejaVuSans-6b"/>
      <use xlink:href="#DejaVuSans-28" x="57.910156"/>
      <use xlink:href="#DejaVuSans-30" x="96.923828"/>
      <use xlink:href="#DejaVuSans-2e" x="160.546875"/>
      <use xlink:href="#DejaVuSans-31" x="192.333984"/>
      <use xlink:href="#DejaVuSans-29" x="255.957031"/>
     </g>
    </g>
   </g>
  </g>
  <g id="axes_6">
   <g id="patch_32">
    <path d="M 10.8 232.8 
L 285.84 232.8 
L 285.84 127.2 
L 10.8 127.2 
z
" style="fill: #ffffff"/>
   </g>
   <g id="patch_33">
    <path d="M 105.813818 232.8 
L 105.813818 127.2 
L 190.826182 127.2 
L 190.826182 232.8 
z
" clip-path="url(#p01f8871d45)" style="fill: #1f77b4; opacity: 0.15; stroke: #1f77b4; stroke-linejoin: miter"/>
   </g>
   <g id="matplotlib.axis_11"/>
   <g id="matplotlib.axis_12"/>
   <g id="line2d_11">
    <path d="M 23.301818 207.969982 
L 25.802182 210.08527 
L 28.302545 212.603471 
L 30.802909 214.215119 
L 33.303273 200.012469 
L 35.803636 208.977262 
L 38.304 205.451782 
L 40.804364 207.768526 
L 43.304727 194.976068 
L 45.805091 165.865672 
L 48.305455 151.965206 
L 50.805818 153.073215 
L 53.306182 172.211537 
L 55.806545 186.615643 
L 58.306909 190.34258 
L 60.807273 185.406907 
L 63.307636 170.196977 
L 65.808 177.046482 
L 68.308364 176.945754 
L 70.808727 188.227291 
L 73.309091 188.025835 
L 75.809455 168.383873 
L 78.309818 146.122982 
L 80.810182 135.54654 
L 83.310545 155.994327 
L 85.810909 169.995521 
L 88.311273 170.096249 
L 90.811636 169.995521 
L 93.312 156.095055 
L 95.812364 172.312265 
L 98.312727 176.240658 
L 100.813091 187.320739 
L 103.313455 181.478514 
L 105.813818 143.14139 
L 108.314182 132 
L 110.814545 140.498616 
L 113.314909 167.102724 
L 115.815273 176.661877 
L 118.315636 173.237586 
L 120.816 181.13791 
L 123.316364 182.072694 
L 125.816727 187.120859 
L 128.317091 194.093769 
L 130.817455 194.929962 
L 133.317818 184.117875 
L 135.818182 166.417399 
L 138.318545 156.40718 
L 140.818909 169.140643 
L 143.319273 181.151278 
L 145.819636 185.127799 
L 148.32 193.835164 
L 150.820364 189.448568 
L 153.320727 186.203201 
L 155.821091 195.279262 
L 158.321455 200.197545 
L 160.821818 208.16173 
L 163.322182 199.468223 
L 165.822545 172.89855 
L 168.322909 175.466745 
L 170.823273 188.109982 
L 173.323636 203.074115 
L 175.824 195.2517 
L 178.324364 222.429644 
L 180.824727 228 
L 183.325091 219.808735 
L 185.825455 225.683717 
L 188.325818 227.413262 
L 190.826182 207.164158 
L 193.326545 203.034309 
L 195.826909 190.644764 
L 198.327273 171.304985 
L 200.827636 185.306179 
L 203.328 204.746685 
L 205.828364 208.876534 
L 208.328727 203.034309 
L 210.829091 207.869254 
L 213.329455 204.847413 
L 215.829818 214.013663 
L 218.330182 214.416575 
L 220.830545 213.207839 
L 223.330909 216.229679 
L 225.831273 196.285532 
L 228.331636 177.852306 
L 230.832 187.220011 
L 233.332364 217.639871 
L 235.832727 214.718759 
L 238.333091 218.143511 
L 240.833455 220.863168 
L 243.333818 214.114391 
L 245.834182 205.653238 
L 248.334545 199.609557 
L 250.834909 216.330407 
L 253.335273 220.158072 
L 255.835636 191.450588 
L 258.336 174.528281 
L 260.836364 187.320739 
L 263.336727 211.495462 
L 265.837091 218.344967 
L 268.337455 220.460256 
L 270.837818 225.2952 
" clip-path="url(#p01f8871d45)" style="fill: none; stroke: #107d79; stroke-width: 1.5; stroke-linecap: square"/>
   </g>
   <g id="patch_34">
    <path d="M 10.8 232.8 
L 10.8 127.2 
" style="fill: none; stroke: #000000; stroke-width: 0.8; stroke-linejoin: miter; stroke-linecap: square"/>
   </g>
   <g id="patch_35">
    <path d="M 285.84 232.8 
L 285.84 127.2 
" style="fill: none; stroke: #000000; stroke-width: 0.8; stroke-linejoin: miter; stroke-linecap: square"/>
   </g>
   <g id="patch_36">
    <path d="M 10.8 232.8 
L 285.84 232.8 
" style="fill: none; stroke: #000000; stroke-width: 0.8; stroke-linejoin: miter; stroke-linecap: square"/>
   </g>
   <g id="patch_37">
    <path d="M 10.8 127.2 
L 285.84 127.2 
" style="fill: none; stroke: #000000; stroke-width: 0.8; stroke-linejoin: miter; stroke-linecap: square"/>
   </g>
   <g id="legend_6">
    <g id="patch_38">
     <path d="M 229.154063 149.878125 
L 278.84 149.878125 
Q 280.84 149.878125 280.84 147.878125 
L 280.84 134.2 
Q 280.84 132.2 278.84 132.2 
L 229.154063 132.2 
Q 227.154063 132.2 227.154063 134.2 
L 227.154063 147.878125 
Q 227.154063 149.878125 229.154063 149.878125 
z
" style="fill: #ffffff; opacity: 0.8; stroke: #cccccc; stroke-linejoin: miter"/>
    </g>
    <g id="line2d_12">
     <path d="M 231.154063 140.298438 
L 241.154063 140.298438 
L 251.154063 140.298438 
" style="fill: none; stroke: #107d79; stroke-width: 1.5; stroke-linecap: square"/>
    </g>
    <g id="text_6">
     <!-- f(2) -->
     <g transform="translate(259.154063 143.798438) scale(0.1 -0.1)">
      <defs>
       <path id="DejaVuSans-32" d="M 1228 531 
L 3431 531 
L 3431 0 
L 469 0 
L 469 531 
Q 828 903 1448 1529 
Q 2069 2156 2228 2338 
Q 2531 2678 2651 2914 
Q 2772 3150 2772 3378 
Q 2772 3750 2511 3984 
Q 2250 4219 1831 4219 
Q 1534 4219 1204 4116 
Q 875 4013 500 3803 
L 500 4441 
Q 881 4594 1212 4672 
Q 1544 4750 1819 4750 
Q 2544 4750 2975 4387 
Q 3406 4025 3406 3419 
Q 3406 3131 3298 2873 
Q 3191 2616 2906 2266 
Q 2828 2175 2409 1742 
Q 1991 1309 1228 531 
z
" transform="scale(0.015625)"/>
      </defs>
      <use xlink:href="#DejaVuSans-66"/>
      <use xlink:href="#DejaVuSans-28" x="35.205078"/>
      <use xlink:href="#DejaVuSans-32" x="74.21875"/>
      <use xlink:href="#DejaVuSans-29" x="137.841797"/>
     </g>
    </g>
   </g>
  </g>
  <g id="axes_7">
   <g id="patch_39">
    <path d="M 296.64 232.8 
L 571.68 232.8 
L 571.68 127.2 
L 296.64 127.2 
z
" style="fill: #ffffff"/>
   </g>
   <g id="patch_40">
    <path d="M 434.16 232.8 
L 434.16 127.2 
L 559.178182 127.2 
L 559.178182 232.8 
z
" clip-path="url(#pd8c92dff0a)" style="fill: #1f77b4; opacity: 0.15; stroke: #1f77b4; stroke-linejoin: miter"/>
   </g>
   <g id="matplotlib.axis_13"/>
   <g id="matplotlib.axis_14"/>
   <g id="line2d_13">
    <path d="M 309.141818 222.865723 
L 311.642182 224.604752 
L 314.142545 226.675025 
L 316.642909 228 
L 319.143273 216.323661 
L 321.643636 223.693832 
L 324.144 220.79545 
L 326.644364 222.700101 
L 329.144727 212.183115 
L 331.645091 188.25076 
L 334.145455 176.822854 
L 336.645818 177.733774 
L 339.146182 193.467848 
L 341.646545 205.309809 
L 344.146909 208.373813 
L 346.647273 204.316078 
L 349.147636 191.81163 
L 351.648 197.442772 
L 354.148364 197.359961 
L 356.648727 206.634784 
L 359.149091 206.469162 
L 361.649455 190.321033 
L 364.149818 172.019821 
L 366.650182 163.324675 
L 369.150545 180.135291 
L 371.650909 191.646008 
L 374.151273 191.728819 
L 376.651636 191.646008 
L 379.152 180.218101 
L 381.652364 193.550659 
L 384.152727 196.780285 
L 386.653091 205.889485 
L 389.153455 201.086452 
L 391.653818 168.29333 
L 394.154182 158.604452 
L 396.654545 165.063704 
L 399.154909 186.42892 
L 401.655273 193.799092 
L 404.155636 190.486655 
L 406.656 196.449041 
L 409.156364 196.614663 
L 411.656727 200.092721 
L 414.157091 205.144187 
L 416.657455 205.226998 
L 419.157818 195.869365 
L 421.658182 180.9634 
L 424.158545 172.433875 
L 426.658909 182.619618 
L 429.159273 192.225684 
L 431.659636 195.206877 
L 434.16 201.997372 
L 436.660364 196.499353 
L 439.160727 191.912255 
L 441.661091 197.428087 
L 444.161455 199.465862 
L 446.661818 203.905153 
L 449.162182 194.515021 
L 451.662545 170.301735 
L 454.162909 169.937993 
L 456.663273 177.772531 
L 459.163636 187.42891 
L 461.664 178.287211 
L 464.164364 197.880899 
L 466.664727 199.670241 
L 469.165091 190.114487 
L 471.665455 192.152261 
L 474.165818 190.877599 
L 476.666182 197.718407 
L 479.166545 192.882875 
L 481.666909 181.256848 
L 484.167273 163.916868 
L 486.667636 173.987302 
L 489.168 188.529524 
L 491.668364 190.484488 
L 494.168727 184.241171 
L 496.669091 186.775811 
L 499.169455 182.851199 
L 501.669818 188.946708 
L 504.170182 187.837668 
L 506.670545 185.403653 
L 509.170909 186.447696 
L 511.671273 168.610851 
L 514.171636 152.016169 
L 516.672 158.2773 
L 519.172364 181.845913 
L 521.672727 178.004112 
L 524.173091 179.379399 
L 526.673455 180.17501 
L 529.173818 173.186394 
L 531.674182 164.789993 
L 534.174545 158.381054 
L 536.674909 170.687382 
L 539.175273 172.393913 
L 541.675636 147.352518 
L 544.176 132 
L 546.676364 141.076702 
L 549.176727 159.511038 
L 551.677091 163.701896 
L 554.177455 164.000641 
L 556.677818 166.535281 
" clip-path="url(#pd8c92dff0a)" style="fill: none; stroke: #107d79; stroke-width: 1.5; stroke-linecap: square"/>
   </g>
   <g id="patch_41">
    <path d="M 296.64 232.8 
L 296.64 127.2 
" style="fill: none; stroke: #000000; stroke-width: 0.8; stroke-linejoin: miter; stroke-linecap: square"/>
   </g>
   <g id="patch_42">
    <path d="M 571.68 232.8 
L 571.68 127.2 
" style="fill: none; stroke: #000000; stroke-width: 0.8; stroke-linejoin: miter; stroke-linecap: square"/>
   </g>
   <g id="patch_43">
    <path d="M 296.64 232.8 
L 571.68 232.8 
" style="fill: none; stroke: #000000; stroke-width: 0.8; stroke-linejoin: miter; stroke-linecap: square"/>
   </g>
   <g id="patch_44">
    <path d="M 296.64 127.2 
L 571.68 127.2 
" style="fill: none; stroke: #000000; stroke-width: 0.8; stroke-linejoin: miter; stroke-linecap: square"/>
   </g>
   <g id="legend_7">
    <g id="patch_45">
     <path d="M 303.64 149.878125 
L 356.154063 149.878125 
Q 358.154063 149.878125 358.154063 147.878125 
L 358.154063 134.2 
Q 358.154063 132.2 356.154063 132.2 
L 303.64 132.2 
Q 301.64 132.2 301.64 134.2 
L 301.64 147.878125 
Q 301.64 149.878125 303.64 149.878125 
z
" style="fill: #ffffff; opacity: 0.8; stroke: #cccccc; stroke-linejoin: miter"/>
    </g>
    <g id="line2d_14">
     <path d="M 305.64 140.298438 
L 315.64 140.298438 
L 325.64 140.298438 
" style="fill: none; stroke: #107d79; stroke-width: 1.5; stroke-linecap: square"/>
    </g>
    <g id="text_7">
     <!-- g(1) -->
     <g transform="translate(333.64 143.798438) scale(0.1 -0.1)">
      <use xlink:href="#DejaVuSans-67"/>
      <use xlink:href="#DejaVuSans-28" x="63.476562"/>
      <use xlink:href="#DejaVuSans-31" x="102.490234"/>
      <use xlink:href="#DejaVuSans-29" x="166.113281"/>
     </g>
    </g>
   </g>
  </g>
  <g id="axes_8">
   <g id="patch_46">
    <path d="M 582.48 232.8 
L 857.52 232.8 
L 857.52 127.2 
L 582.48 127.2 
z
" style="fill: #ffffff"/>
   </g>
   <g id="patch_47">
    <path d="M 594.981818 232.8 
L 594.981818 127.2 
L 720 127.2 
L 720 232.8 
z
" clip-path="url(#pcd029b2714)" style="fill: #1f77b4; opacity: 0.15; stroke: #1f77b4; stroke-linejoin: miter"/>
   </g>
   <g id="matplotlib.axis_15"/>
   <g id="matplotlib.axis_16"/>
   <g id="line2d_15">
    <path d="M 594.981818 195.813784 
L 597.482182 199.533895 
L 599.982545 203.661922 
L 602.482909 206.826014 
L 604.983273 193.423651 
L 607.483636 204.244657 
L 609.984 201.975306 
L 612.484364 205.801897 
L 614.984727 193.80645 
L 617.485091 164.734738 
L 619.985455 151.590422 
L 622.485818 154.156838 
L 624.986182 175.238308 
L 627.486545 191.121576 
L 629.986909 195.603884 
L 632.487273 190.864314 
L 634.987636 175.299618 
L 637.488 182.824636 
L 639.988364 183.140811 
L 642.488727 195.444624 
L 644.989091 195.746556 
L 647.489455 175.624138 
L 649.989818 152.604587 
L 652.490182 141.642433 
L 654.990545 163.033025 
L 657.490909 177.658089 
L 659.991273 177.783561 
L 662.491636 177.736469 
L 664.992 163.227668 
L 667.492364 180.139083 
L 669.992727 183.994464 
L 672.493091 195.055579 
L 674.993455 188.135437 
L 677.493818 145.400531 
L 679.994182 132 
L 682.494545 139.155159 
L 684.994909 165.304678 
L 687.495273 173.659036 
L 689.995636 168.407334 
L 692.496 174.924974 
L 694.996364 173.992726 
L 697.496727 177.206156 
L 699.997091 182.413152 
L 702.497455 181.37371 
L 704.997818 168.456421 
L 707.498182 148.593848 
L 709.998545 136.902575 
L 712.498909 149.050374 
L 714.999273 160.47518 
L 717.499636 163.447356 
L 720 183.308113 
L 722.500364 178.143249 
L 725.000727 174.137844 
L 727.501091 182.991897 
L 730.001455 187.418923 
L 732.501818 194.902706 
L 735.002182 184.783789 
L 737.502545 155.797305 
L 740.002909 157.167575 
L 742.503273 168.97298 
L 745.003636 183.097302 
L 747.504 173.294601 
L 750.004364 200.067571 
L 752.504727 204.178381 
L 755.005091 193.848652 
L 757.505455 198.275679 
L 760.005818 198.48649 
L 762.506182 209.027029 
L 765.006545 204.705408 
L 767.506909 191.740545 
L 770.007273 171.502709 
L 772.507636 186.154059 
L 775.008 206.4973 
L 777.508364 210.818921 
L 780.008727 204.705408 
L 782.509091 209.764867 
L 785.009455 206.602705 
L 787.509818 216.194596 
L 790.010182 216.616217 
L 792.510545 215.351353 
L 795.010909 218.513515 
L 797.511273 197.643247 
L 800.011636 178.35406 
L 802.512 188.156761 
L 805.012364 219.98919 
L 807.512727 216.932434 
L 810.013091 220.516217 
L 812.513455 223.362163 
L 815.013818 216.300001 
L 817.514182 207.445948 
L 820.014545 201.121625 
L 822.514909 218.61892 
L 825.015273 222.624325 
L 827.515636 192.583788 
L 830.016 174.875682 
L 832.516364 188.262167 
L 835.016727 213.559461 
L 837.517091 220.727028 
L 840.017455 222.940541 
L 842.517818 228 
" clip-path="url(#pcd029b2714)" style="fill: none; stroke: #107d79; stroke-width: 1.5; stroke-linecap: square"/>
   </g>
   <g id="patch_48">
    <path d="M 582.48 232.8 
L 582.48 127.2 
" style="fill: none; stroke: #000000; stroke-width: 0.8; stroke-linejoin: miter; stroke-linecap: square"/>
   </g>
   <g id="patch_49">
    <path d="M 857.52 232.8 
L 857.52 127.2 
" style="fill: none; stroke: #000000; stroke-width: 0.8; stroke-linejoin: miter; stroke-linecap: square"/>
   </g>
   <g id="patch_50">
    <path d="M 582.48 232.8 
L 857.52 232.8 
" style="fill: none; stroke: #000000; stroke-width: 0.8; stroke-linejoin: miter; stroke-linecap: square"/>
   </g>
   <g id="patch_51">
    <path d="M 582.48 127.2 
L 857.52 127.2 
" style="fill: none; stroke: #000000; stroke-width: 0.8; stroke-linejoin: miter; stroke-linecap: square"/>
   </g>
   <g id="legend_8">
    <g id="patch_52">
     <path d="M 798.016875 149.878125 
L 850.52 149.878125 
Q 852.52 149.878125 852.52 147.878125 
L 852.52 134.2 
Q 852.52 132.2 850.52 132.2 
L 798.016875 132.2 
Q 796.016875 132.2 796.016875 134.2 
L 796.016875 147.878125 
Q 796.016875 149.878125 798.016875 149.878125 
z
" style="fill: #ffffff; opacity: 0.8; stroke: #cccccc; stroke-linejoin: miter"/>
    </g>
    <g id="line2d_16">
     <path d="M 800.016875 140.298438 
L 810.016875 140.298438 
L 820.016875 140.298438 
" style="fill: none; stroke: #107d79; stroke-width: 1.5; stroke-linecap: square"/>
    </g>
    <g id="text_8">
     <!-- h(5) -->
     <g transform="translate(828.016875 143.798438) scale(0.1 -0.1)">
      <use xlink:href="#DejaVuSans-68"/>
      <use xlink:href="#DejaVuSans-28" x="63.378906"/>
      <use xlink:href="#DejaVuSans-35" x="102.392578"/>
      <use xlink:href="#DejaVuSans-29" x="166.015625"/>
     </g>
    </g>
   </g>
  </g>
  <g id="axes_9">
   <g id="patch_53">
    <path d="M 868.32 232.8 
L 1143.36 232.8 
L 1143.36 127.2 
L 868.32 127.2 
z
" style="fill: #ffffff"/>
   </g>
   <g id="patch_54">
    <path d="M 943.330909 232.8 
L 943.330909 127.2 
L 1005.84 127.2 
L 1005.84 232.8 
z
" clip-path="url(#pe4fde04f84)" style="fill: #1f77b4; opacity: 0.15; stroke: #1f77b4; stroke-linejoin: miter"/>
   </g>
   <g id="patch_55">
    <path d="M 1068.349091 232.8 
L 1068.349091 127.2 
L 1130.858182 127.2 
L 1130.858182 232.8 
z
" clip-path="url(#pe4fde04f84)" style="fill: #1f77b4; opacity: 0.15; stroke: #1f77b4; stroke-linejoin: miter"/>
   </g>
   <g id="matplotlib.axis_17"/>
   <g id="matplotlib.axis_18"/>
   <g id="line2d_17">
    <path d="M 880.821818 220.379001 
L 883.322182 222.960307 
L 885.822545 226.033291 
L 888.322909 228 
L 890.823273 210.668374 
L 893.323636 221.608195 
L 895.824 217.306018 
L 898.324364 220.133163 
L 900.824727 204.522407 
L 903.325091 168.99872 
L 905.825455 152.035851 
L 908.325818 153.387964 
L 910.826182 176.742638 
L 913.326545 194.320102 
L 915.826909 198.868118 
L 918.327273 192.84507 
L 920.827636 174.284251 
L 923.328 182.642766 
L 925.828364 182.519846 
L 928.328727 196.286812 
L 930.829091 196.040973 
L 933.329455 172.071703 
L 935.829818 144.90653 
L 938.330182 132 
L 940.830545 156.952625 
L 943.330909 168.396274 
L 945.831273 165.081526 
L 948.331636 164.254033 
L 950.832 157.615914 
L 953.332364 167.083563 
L 955.832727 169.13447 
L 958.333091 174.736033 
L 960.833455 175.28436 
L 963.333818 155.296261 
L 965.834182 154.778066 
L 968.334545 159.783698 
L 970.834909 171.006974 
L 973.335273 173.722721 
L 975.835636 164.677089 
L 978.336 173.005861 
L 980.836364 181.234693 
L 983.336727 177.261274 
L 985.837091 180.948058 
L 988.337455 174.066567 
L 990.837818 169.18948 
L 993.338182 175.981103 
L 995.838545 174.816601 
L 998.338909 181.003784 
L 1000.839273 176.843942 
L 1003.339636 179.039711 
L 1005.84 189.403329 
L 1008.340364 183.380282 
L 1010.840727 178.709347 
L 1013.341091 189.034571 
L 1015.841455 194.197183 
L 1018.341818 202.924456 
L 1020.842182 191.1242 
L 1023.342545 157.321383 
L 1025.842909 158.919334 
L 1028.343273 172.6863 
L 1030.843636 189.15749 
L 1033.344 177.725992 
L 1035.844364 208.947503 
L 1038.344727 213.741357 
L 1040.845091 201.695262 
L 1043.345455 206.857875 
L 1045.845818 207.103713 
L 1048.346182 219.395647 
L 1050.846545 214.355954 
L 1053.346909 199.236876 
L 1055.847273 175.636364 
L 1058.347636 192.722151 
L 1060.848 216.445583 
L 1063.348364 221.485275 
L 1065.848727 214.355954 
L 1068.349091 208.246719 
L 1070.849455 212.598322 
L 1073.349818 223.252903 
L 1075.850182 226.326129 
L 1078.350545 215.757226 
L 1080.850909 219.389099 
L 1083.351273 220.188763 
L 1085.851636 215.953044 
L 1088.352 214.831471 
L 1090.852364 226.099629 
L 1093.352727 221.071626 
L 1095.853091 222.087253 
L 1098.353455 221.382978 
L 1100.853818 222.778812 
L 1103.354182 215.518254 
L 1105.854545 213.519543 
L 1108.354909 222.378067 
L 1110.855273 222.26291 
L 1113.355636 213.251202 
L 1115.856 214.191408 
L 1118.356364 216.919624 
L 1120.856727 216.373377 
L 1123.357091 221.029273 
L 1125.857455 223.450261 
L 1128.357818 223.926954 
" clip-path="url(#pe4fde04f84)" style="fill: none; stroke: #107d79; stroke-width: 1.5; stroke-linecap: square"/>
   </g>
   <g id="patch_56">
    <path d="M 868.32 232.8 
L 868.32 127.2 
" style="fill: none; stroke: #000000; stroke-width: 0.8; stroke-linejoin: miter; stroke-linecap: square"/>
   </g>
   <g id="patch_57">
    <path d="M 1143.36 232.8 
L 1143.36 127.2 
" style="fill: none; stroke: #000000; stroke-width: 0.8; stroke-linejoin: miter; stroke-linecap: square"/>
   </g>
   <g id="patch_58">
    <path d="M 868.32 232.8 
L 1143.36 232.8 
" style="fill: none; stroke: #000000; stroke-width: 0.8; stroke-linejoin: miter; stroke-linecap: square"/>
   </g>
   <g id="patch_59">
    <path d="M 868.32 127.2 
L 1143.36 127.2 
" style="fill: none; stroke: #000000; stroke-width: 0.8; stroke-linejoin: miter; stroke-linecap: square"/>
   </g>
   <g id="legend_9">
    <g id="patch_60">
     <path d="M 1074.863125 149.878125 
L 1136.36 149.878125 
Q 1138.36 149.878125 1138.36 147.878125 
L 1138.36 134.2 
Q 1138.36 132.2 1136.36 132.2 
L 1074.863125 132.2 
Q 1072.863125 132.2 1072.863125 134.2 
L 1072.863125 147.878125 
Q 1072.863125 149.878125 1074.863125 149.878125 
z
" style="fill: #ffffff; opacity: 0.8; stroke: #cccccc; stroke-linejoin: miter"/>
    </g>
    <g id="line2d_18">
     <path d="M 1076.863125 140.298438 
L 1086.863125 140.298438 
L 1096.863125 140.298438 
" style="fill: none; stroke: #107d79; stroke-width: 1.5; stroke-linecap: square"/>
    </g>
    <g id="text_9">
     <!-- k(0.1) -->
     <g transform="translate(1104.863125 143.798438) scale(0.1 -0.1)">
      <use xlink:href="#DejaVuSans-6b"/>
      <use xlink:href="#DejaVuSans-28" x="57.910156"/>
      <use xlink:href="#DejaVuSans-30" x="96.923828"/>
      <use xlink:href="#DejaVuSans-2e" x="160.546875"/>
      <use xlink:href="#DejaVuSans-31" x="192.333984"/>
      <use xlink:href="#DejaVuSans-29" x="255.957031"/>
     </g>
    </g>
   </g>
  </g>
  <g id="axes_10">
   <g id="patch_61">
    <path d="M 1154.16 232.8 
L 1429.2 232.8 
L 1429.2 127.2 
L 1154.16 127.2 
z
" style="fill: #ffffff"/>
   </g>
   <g id="patch_62">
    <path d="M 1291.68 232.8 
L 1291.68 127.2 
L 1416.698182 127.2 
L 1416.698182 232.8 
z
" clip-path="url(#p855ba6f566)" style="fill: #1f77b4; opacity: 0.15; stroke: #1f77b4; stroke-linejoin: miter"/>
   </g>
   <g id="matplotlib.axis_19"/>
   <g id="matplotlib.axis_20"/>
   <g id="line2d_19">
    <path d="M 1166.661818 220.897375 
L 1169.162182 223.303103 
L 1171.662545 226.167064 
L 1174.162909 228 
L 1176.663273 211.847255 
L 1179.163636 222.042959 
L 1181.664 218.033413 
L 1184.164364 220.668258 
L 1186.664727 206.119332 
L 1189.165091 173.011933 
L 1191.665455 157.202864 
L 1194.165818 158.463007 
L 1196.666182 180.229117 
L 1199.166545 196.610979 
L 1201.666909 200.849642 
L 1204.167273 195.236277 
L 1206.667636 177.937947 
L 1209.168 185.727924 
L 1211.668364 185.613365 
L 1214.168727 198.443914 
L 1216.669091 198.214797 
L 1219.169455 175.875895 
L 1221.669818 150.558473 
L 1224.170182 138.529833 
L 1226.670545 161.785203 
L 1229.170909 177.708831 
L 1231.671273 177.823389 
L 1234.171636 177.708831 
L 1236.672 161.899761 
L 1239.172364 180.343675 
L 1241.672727 184.811456 
L 1244.173091 197.412888 
L 1246.673455 190.768496 
L 1249.173818 145.403341 
L 1251.674182 132 
L 1254.174545 140.935561 
L 1256.674909 170.491647 
L 1259.175273 180.687351 
L 1261.675636 176.105012 
L 1264.176 184.353222 
L 1266.676364 184.582339 
L 1269.176727 189.393795 
L 1271.677091 196.381862 
L 1274.177455 196.49642 
L 1276.677818 183.551313 
L 1279.178182 162.930788 
L 1281.678545 151.131265 
L 1284.178909 165.221957 
L 1286.679273 178.51074 
L 1289.179636 182.634845 
L 1291.68 195.196061 
L 1294.180364 187.456081 
L 1296.680727 189.161509 
L 1299.181091 190.723826 
L 1301.681455 191.808686 
L 1304.181818 193.393063 
L 1306.682182 190.112909 
L 1309.182545 182.935275 
L 1311.682909 195.548574 
L 1314.183273 194.373953 
L 1316.683636 189.039228 
L 1319.184 177.633411 
L 1321.684364 196.891531 
L 1324.184727 198.120157 
L 1326.685091 191.638623 
L 1329.185455 190.385817 
L 1331.685818 188.728665 
L 1334.186182 191.818014 
L 1336.686545 190.210357 
L 1339.186909 200.279033 
L 1341.687273 192.582458 
L 1344.187636 194.639212 
L 1346.688 192.651996 
L 1349.188364 196.53568 
L 1351.688727 182.757794 
L 1354.189091 184.658758 
L 1356.689455 188.728337 
L 1359.189818 197.871115 
L 1361.690182 200.318586 
L 1364.190545 188.868645 
L 1366.690909 191.644056 
L 1369.191273 194.503982 
L 1371.691636 192.088396 
L 1374.192 189.51989 
L 1376.692364 197.273217 
L 1379.192727 192.512994 
L 1381.693091 193.299619 
L 1384.193455 192.423196 
L 1386.693818 194.908487 
L 1389.194182 188.617934 
L 1391.694545 187.416762 
L 1394.194909 194.578321 
L 1396.695273 194.074406 
L 1399.195636 188.457077 
L 1401.696 191.635986 
L 1404.196364 192.892495 
L 1406.696727 189.306913 
L 1409.197091 193.287517 
L 1411.697455 195.539163 
L 1414.197818 195.423287 
" clip-path="url(#p855ba6f566)" style="fill: none; stroke: #107d79; stroke-width: 1.5; stroke-linecap: square"/>
   </g>
   <g id="patch_63">
    <path d="M 1154.16 232.8 
L 1154.16 127.2 
" style="fill: none; stroke: #000000; stroke-width: 0.8; stroke-linejoin: miter; stroke-linecap: square"/>
   </g>
   <g id="patch_64">
    <path d="M 1429.2 232.8 
L 1429.2 127.2 
" style="fill: none; stroke: #000000; stroke-width: 0.8; stroke-linejoin: miter; stroke-linecap: square"/>
   </g>
   <g id="patch_65">
    <path d="M 1154.16 232.8 
L 1429.2 232.8 
" style="fill: none; stroke: #000000; stroke-width: 0.8; stroke-linejoin: miter; stroke-linecap: square"/>
   </g>
   <g id="patch_66">
    <path d="M 1154.16 127.2 
L 1429.2 127.2 
" style="fill: none; stroke: #000000; stroke-width: 0.8; stroke-linejoin: miter; stroke-linecap: square"/>
   </g>
   <g id="legend_10">
    <g id="patch_67">
     <path d="M 1327.120312 149.878125 
L 1422.2 149.878125 
Q 1424.2 149.878125 1424.2 147.878125 
L 1424.2 134.2 
Q 1424.2 132.2 1422.2 132.2 
L 1327.120312 132.2 
Q 1325.120312 132.2 1325.120312 134.2 
L 1325.120312 147.878125 
Q 1325.120312 149.878125 1327.120312 149.878125 
z
" style="fill: #ffffff; opacity: 0.8; stroke: #cccccc; stroke-linejoin: miter"/>
    </g>
    <g id="line2d_20">
     <path d="M 1329.120312 140.298438 
L 1339.120312 140.298438 
L 1349.120312 140.298438 
" style="fill: none; stroke: #107d79; stroke-width: 1.5; stroke-linecap: square"/>
    </g>
    <g id="text_10">
     <!-- k[f(0.1), 0.1] -->
     <g transform="translate(1357.120312 143.798438) scale(0.1 -0.1)">
      <defs>
       <path id="DejaVuSans-5b" d="M 550 4863 
L 1875 4863 
L 1875 4416 
L 1125 4416 
L 1125 -397 
L 1875 -397 
L 1875 -844 
L 550 -844 
L 550 4863 
z
" transform="scale(0.015625)"/>
       <path id="DejaVuSans-2c" d="M 750 794 
L 1409 794 
L 1409 256 
L 897 -744 
L 494 -744 
L 750 256 
L 750 794 
z
" transform="scale(0.015625)"/>
       <path id="DejaVuSans-5d" d="M 1947 4863 
L 1947 -844 
L 622 -844 
L 622 -397 
L 1369 -397 
L 1369 4416 
L 622 4416 
L 622 4863 
L 1947 4863 
z
" transform="scale(0.015625)"/>
      </defs>
      <use xlink:href="#DejaVuSans-6b"/>
      <use xlink:href="#DejaVuSans-5b" x="57.910156"/>
      <use xlink:href="#DejaVuSans-66" x="96.923828"/>
      <use xlink:href="#DejaVuSans-28" x="132.128906"/>
      <use xlink:href="#DejaVuSans-30" x="171.142578"/>
      <use xlink:href="#DejaVuSans-2e" x="234.765625"/>
      <use xlink:href="#DejaVuSans-31" x="266.552734"/>
      <use xlink:href="#DejaVuSans-29" x="330.175781"/>
      <use xlink:href="#DejaVuSans-2c" x="369.189453"/>
      <use xlink:href="#DejaVuSans-20" x="400.976562"/>
      <use xlink:href="#DejaVuSans-30" x="432.763672"/>
      <use xlink:href="#DejaVuSans-2e" x="496.386719"/>
      <use xlink:href="#DejaVuSans-31" x="528.173828"/>
      <use xlink:href="#DejaVuSans-5d" x="591.796875"/>
     </g>
    </g>
   </g>
  </g>
  <g id="axes_11">
   <g id="patch_68">
    <path d="M 10.8 349.2 
L 285.84 349.2 
L 285.84 243.6 
L 10.8 243.6 
z
" style="fill: #ffffff"/>
   </g>
   <g id="matplotlib.axis_21"/>
   <g id="matplotlib.axis_22"/>
   <g id="line2d_21">
    <path d="M 23.301818 338.358855 
L 25.802182 334.074935 
L 28.302545 334.880528 
L 30.802909 336.618231 
L 33.303273 338.106418 
L 35.803636 337.80238 
L 38.304 337.152454 
L 40.804364 334.588054 
L 43.304727 331.301689 
L 45.805091 330.929918 
L 48.305455 334.027636 
L 50.805818 337.881258 
L 53.306182 333.484541 
L 55.806545 336.969483 
L 58.306909 338.253746 
L 60.807273 335.1003 
L 63.307636 333.500767 
L 65.808 331.704709 
L 68.308364 331.548291 
L 70.808727 334.559075 
L 73.309091 339.276283 
L 75.809455 344.4 
L 78.309818 339.981168 
L 80.810182 333.021274 
L 83.310545 331.748403 
L 85.810909 335.024316 
L 88.311273 333.491055 
L 90.811636 333.464886 
L 93.312 330.994912 
L 95.812364 335.763015 
L 98.312727 336.898698 
L 100.813091 339.395076 
L 103.313455 339.922869 
L 105.813818 330.669296 
L 108.314182 330.794535 
L 110.814545 332.760421 
L 113.314909 337.09879 
L 115.815273 337.668794 
L 118.315636 332.246222 
L 120.816 336.206385 
L 123.316364 340.558719 
L 125.816727 337.389481 
L 128.317091 338.581883 
L 130.817455 334.0515 
L 133.317818 331.631277 
L 135.818182 336.649762 
L 138.318545 336.473849 
L 140.818909 339.001864 
L 143.319273 335.505368 
L 145.819636 336.310392 
L 148.32 265.38483 
L 150.820364 262.196107 
L 153.320727 259.72322 
L 155.821091 265.189602 
L 158.321455 267.922793 
L 160.821818 272.543187 
L 163.322182 266.295893 
L 165.822545 248.4 
L 168.322909 249.245988 
L 170.823273 256.534497 
L 173.323636 265.254678 
L 175.824 259.202612 
L 178.324364 275.73191 
L 180.824727 278.269873 
L 183.325091 271.892427 
L 185.825455 274.625618 
L 188.325818 274.75577 
L 190.826182 281.263368 
L 193.326545 278.595253 
L 195.826909 270.590908 
L 198.327273 258.09632 
L 200.827636 267.141881 
L 203.328 279.701544 
L 205.828364 282.369659 
L 208.328727 278.595253 
L 210.829091 281.7189 
L 213.329455 279.76662 
L 215.829818 285.688534 
L 218.330182 285.948838 
L 220.830545 285.167926 
L 223.330909 287.120206 
L 225.831273 274.235162 
L 228.331636 262.326259 
L 230.832 268.378325 
L 233.332364 288.031269 
L 235.832727 286.144066 
L 238.333091 288.356649 
L 240.833455 290.1137 
L 243.333818 285.75361 
L 245.834182 280.287228 
L 248.334545 276.38267 
L 250.834909 287.185281 
L 253.335273 289.658169 
L 255.835636 271.111515 
L 258.336 260.178752 
L 260.836364 268.4434 
L 263.336727 284.061635 
L 265.837091 288.486801 
L 268.337455 289.853396 
L 270.837818 292.977043 
" clip-path="url(#p3d8e693cf8)" style="fill: none; stroke: #107d79; stroke-width: 1.5; stroke-linecap: square"/>
   </g>
   <g id="patch_69">
    <path d="M 10.8 349.2 
L 10.8 243.6 
" style="fill: none; stroke: #000000; stroke-width: 0.8; stroke-linejoin: miter; stroke-linecap: square"/>
   </g>
   <g id="patch_70">
    <path d="M 285.84 349.2 
L 285.84 243.6 
" style="fill: none; stroke: #000000; stroke-width: 0.8; stroke-linejoin: miter; stroke-linecap: square"/>
   </g>
   <g id="patch_71">
    <path d="M 10.8 349.2 
L 285.84 349.2 
" style="fill: none; stroke: #000000; stroke-width: 0.8; stroke-linejoin: miter; stroke-linecap: square"/>
   </g>
   <g id="patch_72">
    <path d="M 10.8 243.6 
L 285.84 243.6 
" style="fill: none; stroke: #000000; stroke-width: 0.8; stroke-linejoin: miter; stroke-linecap: square"/>
   </g>
  </g>
  <g id="axes_12">
   <g id="patch_73">
    <path d="M 296.64 349.2 
L 571.68 349.2 
L 571.68 243.6 
L 296.64 243.6 
z
" style="fill: #ffffff"/>
   </g>
   <g id="matplotlib.axis_23"/>
   <g id="matplotlib.axis_24"/>
   <g id="line2d_22">
    <path d="M 309.141818 299.847514 
L 311.642182 301.239779 
L 314.142545 302.897238 
L 316.642909 303.958011 
L 319.143273 294.609945 
L 321.643636 300.510497 
L 324.144 298.190055 
L 326.644364 299.714917 
L 329.144727 291.295028 
L 331.645091 272.134807 
L 334.145455 262.985635 
L 336.645818 263.714917 
L 339.146182 276.311602 
L 341.646545 285.792265 
L 344.146909 288.245304 
L 346.647273 284.996685 
L 349.147636 274.985635 
L 351.648 279.493923 
L 354.148364 279.427624 
L 356.648727 286.853039 
L 359.149091 286.720442 
L 361.649455 273.792265 
L 364.149818 259.140331 
L 366.650182 252.179006 
L 369.150545 265.637569 
L 371.650909 274.853039 
L 374.151273 274.919337 
L 376.651636 274.853039 
L 379.152 265.703867 
L 381.652364 276.377901 
L 384.152727 278.963536 
L 386.653091 286.256354 
L 389.153455 282.41105 
L 391.653818 256.156906 
L 394.154182 248.4 
L 396.654545 253.571271 
L 399.154909 270.676243 
L 401.655273 276.576796 
L 404.155636 273.924862 
L 406.656 278.698343 
L 409.156364 278.830939 
L 411.656727 281.61547 
L 414.157091 285.659669 
L 416.657455 285.725967 
L 419.157818 278.234254 
L 421.658182 266.300552 
L 424.158545 259.471823 
L 426.658909 267.626519 
L 429.159273 275.317127 
L 431.659636 277.703867 
L 434.16 316.289503 
L 436.660364 313.040884 
L 439.160727 310.521547 
L 441.661091 316.090608 
L 444.161455 318.875138 
L 446.661818 323.58232 
L 449.162182 317.21768 
L 451.662545 298.985635 
L 454.162909 299.847514 
L 456.663273 307.272928 
L 459.163636 316.156906 
L 461.664 309.99116 
L 464.164364 326.830939 
L 466.664727 329.416575 
L 469.165091 322.919337 
L 471.665455 325.703867 
L 474.165818 325.836464 
L 476.666182 332.466298 
L 479.166545 329.748066 
L 481.666909 321.59337 
L 484.167273 308.864088 
L 486.667636 318.079558 
L 489.168 330.875138 
L 491.668364 333.59337 
L 494.168727 329.748066 
L 496.669091 332.930387 
L 499.169455 330.941436 
L 501.669818 336.974586 
L 504.170182 337.239779 
L 506.670545 336.444199 
L 509.170909 338.433149 
L 511.671273 325.306077 
L 514.171636 313.173481 
L 516.672 319.339227 
L 519.172364 339.361326 
L 521.672727 337.438674 
L 524.173091 339.692818 
L 526.673455 341.482873 
L 529.173818 337.040884 
L 531.674182 331.471823 
L 534.174545 327.493923 
L 536.674909 338.499448 
L 539.175273 341.018785 
L 541.675636 322.123757 
L 544.176 310.985635 
L 546.676364 319.405525 
L 549.176727 335.317127 
L 551.677091 339.825414 
L 554.177455 341.21768 
L 556.677818 344.4 
" clip-path="url(#p929c5c76b0)" style="fill: none; stroke: #107d79; stroke-width: 1.5; stroke-linecap: square"/>
   </g>
   <g id="patch_74">
    <path d="M 296.64 349.2 
L 296.64 243.6 
" style="fill: none; stroke: #000000; stroke-width: 0.8; stroke-linejoin: miter; stroke-linecap: square"/>
   </g>
   <g id="patch_75">
    <path d="M 571.68 349.2 
L 571.68 243.6 
" style="fill: none; stroke: #000000; stroke-width: 0.8; stroke-linejoin: miter; stroke-linecap: square"/>
   </g>
   <g id="patch_76">
    <path d="M 296.64 349.2 
L 571.68 349.2 
" style="fill: none; stroke: #000000; stroke-width: 0.8; stroke-linejoin: miter; stroke-linecap: square"/>
   </g>
   <g id="patch_77">
    <path d="M 296.64 243.6 
L 571.68 243.6 
" style="fill: none; stroke: #000000; stroke-width: 0.8; stroke-linejoin: miter; stroke-linecap: square"/>
   </g>
  </g>
  <g id="axes_13">
   <g id="patch_78">
    <path d="M 582.48 349.2 
L 857.52 349.2 
L 857.52 243.6 
L 582.48 243.6 
z
" style="fill: #ffffff"/>
   </g>
   <g id="matplotlib.axis_25"/>
   <g id="matplotlib.axis_26"/>
   <g id="line2d_23">
    <path d="M 594.981818 336.779001 
L 597.482182 339.360307 
L 599.982545 342.433291 
L 602.482909 344.4 
L 604.983273 327.068374 
L 607.483636 338.008195 
L 609.984 333.706018 
L 612.484364 336.533163 
L 614.984727 320.922407 
L 617.485091 285.39872 
L 619.985455 268.435851 
L 622.485818 269.787964 
L 624.986182 293.142638 
L 627.486545 310.720102 
L 629.986909 315.268118 
L 632.487273 309.24507 
L 634.987636 290.684251 
L 637.488 299.042766 
L 639.988364 298.919846 
L 642.488727 312.686812 
L 644.989091 312.440973 
L 647.489455 288.471703 
L 649.989818 261.30653 
L 652.490182 248.4 
L 654.990545 273.352625 
L 657.490909 275.382046 
L 659.991273 272.485932 
L 662.491636 272.436503 
L 664.992 267.77107 
L 667.492364 276.777345 
L 669.992727 278.922489 
L 672.493091 283.637796 
L 674.993455 284.634721 
L 677.493818 267.156029 
L 679.994182 267.392587 
L 682.494545 271.105869 
L 684.994909 279.300435 
L 687.495273 280.377092 
L 689.995636 270.134619 
L 692.496 277.614808 
L 694.996364 285.835753 
L 697.496727 279.849509 
L 699.997091 282.101788 
L 702.497455 273.544535 
L 704.997818 268.973074 
L 707.498182 278.452285 
L 709.998545 278.12001 
L 712.498909 282.895073 
L 714.999273 276.290686 
L 717.499636 277.811263 
L 720 279.327059 
L 722.500364 271.251936 
L 725.000727 273.305527 
L 727.501091 275.199354 
L 730.001455 276.569399 
L 732.501818 278.457292 
L 735.002182 275.102696 
L 737.502545 267.544797 
L 740.002909 281.204959 
L 742.503273 280.05826 
L 745.003636 274.436671 
L 747.504 262.292072 
L 750.004364 282.992157 
L 752.504727 284.305333 
L 755.005091 277.30775 
L 757.505455 275.901972 
L 760.005818 274.065776 
L 762.506182 277.341698 
L 765.006545 275.599645 
L 767.506909 286.401099 
L 770.007273 278.148063 
L 772.507636 280.357397 
L 775.008 278.212217 
L 777.508364 282.345802 
L 780.008727 267.521437 
L 782.509091 269.53131 
L 785.009455 273.889272 
L 787.509818 283.707191 
L 790.010182 286.343455 
L 792.510545 274.055558 
L 795.010909 277.005895 
L 797.511273 280.015615 
L 800.011636 277.336025 
L 802.512 274.478088 
L 805.012364 282.701504 
L 807.512727 277.516055 
L 810.013091 278.296521 
L 812.513455 277.298977 
L 815.013818 279.905942 
L 817.514182 273.087365 
L 820.014545 271.711595 
L 822.514909 279.297039 
L 825.015273 278.655816 
L 827.515636 272.539156 
L 830.016 275.880734 
L 832.516364 277.176277 
L 835.016727 273.283719 
L 837.517091 277.511166 
L 840.017455 279.88434 
L 842.517818 279.712684 
" clip-path="url(#p86ffd2a913)" style="fill: none; stroke: #107d79; stroke-width: 1.5; stroke-linecap: square"/>
   </g>
   <g id="patch_79">
    <path d="M 582.48 349.2 
L 582.48 243.6 
" style="fill: none; stroke: #000000; stroke-width: 0.8; stroke-linejoin: miter; stroke-linecap: square"/>
   </g>
   <g id="patch_80">
    <path d="M 857.52 349.2 
L 857.52 243.6 
" style="fill: none; stroke: #000000; stroke-width: 0.8; stroke-linejoin: miter; stroke-linecap: square"/>
   </g>
   <g id="patch_81">
    <path d="M 582.48 349.2 
L 857.52 349.2 
" style="fill: none; stroke: #000000; stroke-width: 0.8; stroke-linejoin: miter; stroke-linecap: square"/>
   </g>
   <g id="patch_82">
    <path d="M 582.48 243.6 
L 857.52 243.6 
" style="fill: none; stroke: #000000; stroke-width: 0.8; stroke-linejoin: miter; stroke-linecap: square"/>
   </g>
  </g>
  <g id="axes_14">
   <g id="patch_83">
    <path d="M 868.32 349.2 
L 1143.36 349.2 
L 1143.36 243.6 
L 868.32 243.6 
z
" style="fill: #ffffff"/>
   </g>
   <g id="matplotlib.axis_27"/>
   <g id="matplotlib.axis_28"/>
   <g id="line2d_24">
    <path d="M 880.821818 331.113404 
L 883.322182 331.95651 
L 885.822545 332.960207 
L 888.322909 333.602573 
L 890.823273 327.941721 
L 893.323636 331.514883 
L 895.824 330.109707 
L 898.324364 331.033109 
L 900.824727 325.934327 
L 903.325091 314.331587 
L 905.825455 308.791179 
L 908.325818 309.232805 
L 910.826182 316.860904 
L 913.326545 322.602052 
L 915.826909 324.087524 
L 918.327273 322.120277 
L 920.827636 316.057946 
L 923.328 318.788003 
L 925.828364 318.747855 
L 928.328727 323.244418 
L 930.829091 323.164123 
L 933.329455 315.335284 
L 935.829818 306.462601 
L 938.330182 302.247073 
L 940.830545 310.397094 
L 943.330909 315.15513 
L 945.831273 316.704336 
L 948.331636 317.199586 
L 950.832 308.181836 
L 953.332364 318.61566 
L 955.832727 321.307197 
L 958.333091 328.595501 
L 960.833455 323.348512 
L 963.333818 296.817281 
L 965.834182 286.832213 
L 968.334545 291.370814 
L 970.834909 308.919346 
L 973.335273 315.240215 
L 975.835636 314.891637 
L 978.336 317.713273 
L 980.836364 314.604166 
L 983.336727 319.28007 
L 985.837091 322.78203 
L 988.337455 325.071015 
L 990.837818 317.036201 
L 993.338182 299.143636 
L 995.838545 290.690924 
L 998.338909 298.733518 
L 1000.839273 309.944932 
L 1003.339636 312.059676 
L 1005.84 321.874619 
L 1008.340364 320.81702 
L 1010.840727 312.988175 
L 1013.341091 322.387442 
L 1015.841455 326.211108 
L 1018.341818 333.512852 
L 1020.842182 321.400282 
L 1023.342545 287.352226 
L 1025.842909 276.268801 
L 1028.343273 291.043512 
L 1030.843636 312.417269 
L 1033.344 307.110086 
L 1035.844364 323.676608 
L 1038.344727 325.79395 
L 1040.845091 315.393351 
L 1043.345455 320.149 
L 1045.845818 319.797664 
L 1048.346182 329.252365 
L 1050.846545 323.134248 
L 1053.346909 295.294685 
L 1055.847273 273.378247 
L 1058.347636 289.533361 
L 1060.848 316.91698 
L 1063.348364 317.862034 
L 1065.848727 320.478413 
L 1068.349091 330.94062 
L 1070.849455 317.776481 
L 1073.349818 321.946879 
L 1075.850182 318.123574 
L 1078.350545 330.611428 
L 1080.850909 331.67615 
L 1083.351273 287.045473 
L 1085.851636 253.039189 
L 1088.352 274.883961 
L 1090.852364 324.48244 
L 1093.352727 325.444084 
L 1095.853091 331.43958 
L 1098.353455 338.41389 
L 1100.853818 321.788623 
L 1103.354182 314.000537 
L 1105.854545 303.795325 
L 1108.354909 327.223881 
L 1110.855273 335.699069 
L 1113.355636 286.485991 
L 1115.856 248.4 
L 1118.356364 272.19922 
L 1120.856727 325.449545 
L 1123.357091 333.548916 
L 1125.857455 334.614948 
L 1128.357818 344.4 
" clip-path="url(#p324d22e069)" style="fill: none; stroke: #107d79; stroke-width: 1.5; stroke-linecap: square"/>
   </g>
   <g id="patch_84">
    <path d="M 868.32 349.2 
L 868.32 243.6 
" style="fill: none; stroke: #000000; stroke-width: 0.8; stroke-linejoin: miter; stroke-linecap: square"/>
   </g>
   <g id="patch_85">
    <path d="M 1143.36 349.2 
L 1143.36 243.6 
" style="fill: none; stroke: #000000; stroke-width: 0.8; stroke-linejoin: miter; stroke-linecap: square"/>
   </g>
   <g id="patch_86">
    <path d="M 868.32 349.2 
L 1143.36 349.2 
" style="fill: none; stroke: #000000; stroke-width: 0.8; stroke-linejoin: miter; stroke-linecap: square"/>
   </g>
   <g id="patch_87">
    <path d="M 868.32 243.6 
L 1143.36 243.6 
" style="fill: none; stroke: #000000; stroke-width: 0.8; stroke-linejoin: miter; stroke-linecap: square"/>
   </g>
  </g>
  <g id="axes_15">
   <g id="patch_88">
    <path d="M 1154.16 349.2 
L 1429.2 349.2 
L 1429.2 243.6 
L 1154.16 243.6 
z
" style="fill: #ffffff"/>
   </g>
   <g id="matplotlib.axis_29"/>
   <g id="matplotlib.axis_30"/>
   <g id="line2d_25">
    <path d="M 1166.661818 323.412061 
L 1169.162182 333.992641 
L 1171.662545 339.727624 
L 1174.162909 342.966056 
L 1176.663273 320.776806 
L 1179.163636 338.098239 
L 1181.664 335.488573 
L 1184.164364 344.4 
L 1186.664727 329.546215 
L 1189.165091 285.063733 
L 1191.665455 261.551222 
L 1194.165818 261.595691 
L 1196.666182 299.30535 
L 1199.166545 320.504271 
L 1201.666909 326.424732 
L 1204.167273 322.844281 
L 1206.667636 300.809867 
L 1209.168 314.804883 
L 1211.668364 315.840595 
L 1214.168727 332.04919 
L 1216.669091 327.79946 
L 1219.169455 291.44142 
L 1221.669818 260.891073 
L 1224.170182 251.809769 
L 1226.670545 286.811405 
L 1229.170909 295.997498 
L 1231.671273 298.268542 
L 1234.171636 298.621421 
L 1236.672 279.186905 
L 1239.172364 300.768952 
L 1241.672727 306.150513 
L 1244.173091 321.445227 
L 1246.673455 311.16246 
L 1249.173818 272.797865 
L 1251.674182 267.720325 
L 1254.174545 273.073356 
L 1256.674909 288.527047 
L 1259.175273 293.369853 
L 1261.675636 287.888758 
L 1264.176 294.395997 
L 1266.676364 297.954114 
L 1269.176727 298.020277 
L 1271.677091 302.110388 
L 1274.177455 299.24584 
L 1276.677818 292.493635 
L 1279.178182 287.886831 
L 1281.678545 283.117737 
L 1284.178909 290.838472 
L 1286.679273 293.898934 
L 1289.179636 296.321201 
L 1291.68 300.935846 
L 1294.180364 295.832179 
L 1296.680727 295.107471 
L 1299.181091 300.0368 
L 1301.681455 302.838648 
L 1304.181818 307.250026 
L 1306.682182 301.94293 
L 1309.182545 286.74719 
L 1311.682909 293.130193 
L 1314.183273 298.558379 
L 1316.683636 256.64392 
L 1319.184 248.4 
L 1321.684364 268.872848 
L 1324.184727 271.955518 
L 1326.685091 265.496765 
L 1329.185455 267.687321 
L 1331.685818 267.791608 
L 1334.186182 274.347576 
L 1336.686545 272.36161 
L 1339.186909 271.297763 
L 1341.687273 259.748341 
L 1344.187636 267.604808 
L 1346.688 276.300811 
L 1349.188364 280.266383 
L 1351.688727 272.367373 
L 1354.189091 275.765725 
L 1356.689455 276.3576 
L 1359.189818 284.636056 
L 1361.690182 286.099999 
L 1364.190545 281.138388 
L 1366.690909 283.917961 
L 1369.191273 276.03324 
L 1371.691636 266.644971 
L 1374.192 270.033373 
L 1376.692364 287.333223 
L 1379.192727 284.005587 
L 1381.693091 285.846421 
L 1384.193455 286.670243 
L 1386.693818 284.477373 
L 1389.194182 277.922916 
L 1391.694545 274.58721 
L 1394.194909 285.22174 
L 1396.695273 286.751149 
L 1399.195636 271.110171 
L 1401.696 264.530623 
L 1404.196364 270.956735 
L 1406.696727 280.692625 
L 1409.197091 285.482687 
L 1411.697455 287.377153 
L 1414.197818 289.571777 
" clip-path="url(#p01d540b1b4)" style="fill: none; stroke: #107d79; stroke-width: 1.5; stroke-linecap: square"/>
   </g>
   <g id="patch_89">
    <path d="M 1154.16 349.2 
L 1154.16 243.6 
" style="fill: none; stroke: #000000; stroke-width: 0.8; stroke-linejoin: miter; stroke-linecap: square"/>
   </g>
   <g id="patch_90">
    <path d="M 1429.2 349.2 
L 1429.2 243.6 
" style="fill: none; stroke: #000000; stroke-width: 0.8; stroke-linejoin: miter; stroke-linecap: square"/>
   </g>
   <g id="patch_91">
    <path d="M 1154.16 349.2 
L 1429.2 349.2 
" style="fill: none; stroke: #000000; stroke-width: 0.8; stroke-linejoin: miter; stroke-linecap: square"/>
   </g>
   <g id="patch_92">
    <path d="M 1154.16 243.6 
L 1429.2 243.6 
" style="fill: none; stroke: #000000; stroke-width: 0.8; stroke-linejoin: miter; stroke-linecap: square"/>
   </g>
  </g>
 </g>
 <defs>
  <clipPath id="p8bf77c310d">
   <rect x="10.8" y="10.8" width="275.04" height="105.6"/>
  </clipPath>
  <clipPath id="p4ce4fe08fe">
   <rect x="296.64" y="10.8" width="275.04" height="105.6"/>
  </clipPath>
  <clipPath id="p11dee5748e">
   <rect x="582.48" y="10.8" width="275.04" height="105.6"/>
  </clipPath>
  <clipPath id="p3a2cadaf87">
   <rect x="868.32" y="10.8" width="275.04" height="105.6"/>
  </clipPath>
  <clipPath id="p6934fefbd6">
   <rect x="1154.16" y="10.8" width="275.04" height="105.6"/>
  </clipPath>
  <clipPath id="p01f8871d45">
   <rect x="10.8" y="127.2" width="275.04" height="105.6"/>
  </clipPath>
  <clipPath id="pd8c92dff0a">
   <rect x="296.64" y="127.2" width="275.04" height="105.6"/>
  </clipPath>
  <clipPath id="pcd029b2714">
   <rect x="582.48" y="127.2" width="275.04" height="105.6"/>
  </clipPath>
  <clipPath id="pe4fde04f84">
   <rect x="868.32" y="127.2" width="275.04" height="105.6"/>
  </clipPath>
  <clipPath id="p855ba6f566">
   <rect x="1154.16" y="127.2" width="275.04" height="105.6"/>
  </clipPath>
  <clipPath id="p3d8e693cf8">
   <rect x="10.8" y="243.6" width="275.04" height="105.6"/>
  </clipPath>
  <clipPath id="p929c5c76b0">
   <rect x="296.64" y="243.6" width="275.04" height="105.6"/>
  </clipPath>
  <clipPath id="p86ffd2a913">
   <rect x="582.48" y="243.6" width="275.04" height="105.6"/>
  </clipPath>
  <clipPath id="p324d22e069">
   <rect x="868.32" y="243.6" width="275.04" height="105.6"/>
  </clipPath>
  <clipPath id="p01d540b1b4">
   <rect x="1154.16" y="243.6" width="275.04" height="105.6"/>
  </clipPath>
 </defs>
</svg>
