<?xml version="1.0" encoding="utf-8" standalone="no"?>
<!DOCTYPE svg PUBLIC "-//W3C//DTD SVG 1.1//EN"
  "http://www.w3.org/Graphics/SVG/1.1/DTD/svg11.dtd">
<svg xmlns:xlink="http://www.w3.org/1999/xlink" width="460.8pt" height="345.6pt" viewBox="0 0 460.8 345.6" xmlns="http://www.w3.org/2000/svg" version="1.1">
 <metadata>
  <rdf:RDF xmlns:dc="http://purl.org/dc/elements/1.1/" xmlns:cc="http://creativecommons.org/ns#" xmlns:rdf="http://www.w3.org/1999/02/22-rdf-syntax-ns#">
   <cc:Work>
    <dc:type rdf:resource="http://purl.org/dc/dcmitype/StillImage"/>
    <dc:date>2025-04-07T15:26:10.973690</dc:date>
    <dc:format>image/svg+xml</dc:format>
    <dc:creator>
     <cc:Agent>
      <dc:title>Matplotlib v3.7.1, https://matplotlib.org/</dc:title>
     </cc:Agent>
    </dc:creator>
   </cc:Work>
  </rdf:RDF>
 </metadata>
 <defs>
  <style type="text/css">*{stroke-linejoin: round; stroke-linecap: butt}</style>
 </defs>
 <g id="figure_1">
  <g id="patch_1">
   <path d="M 0 345.6 
L 460.8 345.6 
L 460.8 0 
L 0 0 
z
" style="fill: #ffffff"/>
  </g>
  <g id="axes_1">
   <g id="patch_2">
    <path d="M 57.6 307.584 
L 414.72 307.584 
L 414.72 41.472 
L 57.6 41.472 
z
" style="fill: #ffffff"/>
   </g>
   <g id="matplotlib.axis_1"/>
   <g id="matplotlib.axis_2"/>
   <g id="line2d_1">
    <path d="M 73.832727 233.036964 
L 77.112066 236.231313 
L 80.391405 240.03411 
L 83.670744 242.4679 
L 86.950083 221.020125 
L 90.229421 234.558083 
L 93.50876 229.234167 
L 96.788099 232.73274 
L 100.067438 213.414531 
L 103.346777 169.454197 
L 106.626116 148.462758 
L 109.905455 150.135988 
L 113.184793 179.037246 
L 116.464132 200.789245 
L 119.743471 206.417385 
L 123.02281 198.963902 
L 126.302149 175.995008 
L 129.581488 186.338616 
L 132.860826 186.186504 
L 136.140165 203.223035 
L 139.419504 202.918811 
L 142.698843 173.256994 
L 145.978182 139.640269 
L 149.257521 123.668521 
L 152.53686 154.547233 
L 155.816198 175.690784 
L 159.095537 175.842896 
L 162.374876 175.690784 
L 165.654215 154.699345 
L 168.933554 179.189358 
L 172.212893 185.121721 
L 175.492231 201.854028 
L 178.77157 193.031539 
L 182.050909 132.795234 
L 185.330248 114.998144 
L 188.609587 126.86287 
L 191.888926 166.107736 
L 195.168264 179.645693 
L 198.447603 173.561218 
L 201.726942 184.513274 
L 205.006281 184.817497 
L 208.28562 191.206196 
L 211.564959 200.485021 
L 214.844298 200.637133 
L 218.123636 183.44849 
L 221.402975 156.068352 
L 224.682314 140.400828 
L 227.961653 159.110589 
L 231.240992 176.755568 
L 234.520331 182.231595 
L 237.799669 194.70477 
L 241.079008 187.251287 
L 244.358347 181.471036 
L 247.637686 194.248434 
L 250.917025 200.637133 
L 254.196364 211.437077 
L 257.475702 196.834336 
L 260.755041 155.003569 
L 264.03438 156.981023 
L 267.313719 174.017554 
L 270.593058 194.400546 
L 273.872397 180.254141 
L 277.151736 218.890559 
L 280.431074 224.822922 
L 283.710413 209.915958 
L 286.989752 216.304657 
L 290.269091 216.608881 
L 293.54843 231.820069 
L 296.827769 225.583482 
L 300.107107 206.87372 
L 303.386446 177.668239 
L 306.665785 198.81179 
L 309.945124 228.169384 
L 313.224463 234.405971 
L 316.503802 225.583482 
L 319.78314 232.884852 
L 323.062479 228.321495 
L 326.341818 242.163677 
L 329.621157 242.772124 
L 332.900496 240.946782 
L 336.179835 245.510138 
L 339.459174 215.391986 
L 342.738512 187.555511 
L 346.017851 201.701916 
L 349.29719 247.639704 
L 352.576529 243.22846 
L 355.855868 248.400264 
L 359.135207 252.507285 
L 362.414545 242.315789 
L 365.693884 229.538391 
L 368.973223 220.411678 
L 372.252562 245.66225 
L 375.531901 251.442501 
L 378.81124 208.090615 
L 382.090579 182.535819 
L 385.369917 201.854028 
L 388.649256 238.36088 
L 391.928595 248.704488 
L 395.207934 251.898837 
L 398.487273 259.200207 
" clip-path="url(#p8c00c67fcb)" style="fill: none; stroke: #1f77b4; stroke-width: 1.5; stroke-linecap: square"/>
   </g>
   <g id="line2d_2">
    <path d="M 73.832727 224.808744 
L 77.112066 253.323204 
L 80.391405 265.476976 
L 83.670744 270.898722 
L 86.950083 217.443217 
L 90.229421 257.68213 
L 93.50876 251.924747 
L 96.788099 274.888529 
L 100.067438 243.311305 
L 103.346777 139.908094 
L 106.626116 81.79273 
L 109.905455 77.703131 
L 113.184793 169.6569 
L 116.464132 215.442413 
L 119.743471 228.017345 
L 123.02281 223.022759 
L 126.302149 173.591724 
L 129.581488 208.147049 
L 132.860826 210.887732 
L 136.140165 245.703136 
L 139.419504 231.222418 
L 142.698843 141.702957 
L 145.978182 75.330366 
L 149.257521 61.520645 
L 152.53686 144.594 
L 155.816198 187.327633 
L 159.095537 194.569897 
L 162.374876 195.870961 
L 165.654215 153.584837 
L 168.933554 199.364615 
L 172.212893 210.954277 
L 175.492231 244.020599 
L 178.77157 219.363043 
L 182.050909 99.958134 
L 185.330248 53.568 
L 188.609587 74.883208 
L 191.888926 156.388297 
L 195.168264 186.888318 
L 198.447603 189.319569 
L 201.726942 201.347049 
L 205.006281 185.186435 
L 208.28562 210.418098 
L 211.564959 227.557679 
L 214.844298 242.156311 
L 218.123636 206.378872 
L 221.402975 119.357518 
L 224.682314 79.979229 
L 227.961653 117.110928 
L 231.240992 172.743832 
L 234.520331 182.817822 
L 237.799669 210.173025 
L 241.079008 205.284926 
L 244.358347 185.703326 
L 247.637686 212.738541 
L 250.917025 224.609373 
L 254.196364 246.264393 
L 257.475702 213.772788 
L 260.755041 120.664285 
L 264.03438 97.400115 
L 267.313719 139.035486 
L 270.593058 197.105909 
L 273.872397 180.782819 
L 277.151736 235.341024 
L 280.431074 244.015008 
L 283.710413 215.931095 
L 286.989752 230.787421 
L 290.269091 231.49499 
L 293.54843 260.321008 
L 296.827769 245.073931 
L 300.107107 175.430614 
L 303.386446 115.014983 
L 306.665785 161.218942 
L 309.945124 236.178852 
L 313.224463 241.757721 
L 316.503802 245.045788 
L 319.78314 257.654034 
L 323.062479 236.509948 
L 326.341818 251.447474 
L 329.621157 246.731504 
L 332.900496 263.662174 
L 336.179835 268.340425 
L 339.459174 186.376053 
L 342.738512 120.881579 
L 346.017851 160.918559 
L 349.29719 260.178873 
L 352.576529 258.785756 
L 355.855868 270.482514 
L 359.135207 282.887129 
L 362.414545 252.830913 
L 365.693884 233.732673 
L 368.973223 213.517094 
L 372.252562 262.581342 
L 375.531901 278.232857 
L 378.81124 181.214376 
L 382.090579 111.129088 
L 385.369917 157.017397 
L 388.649256 255.49563 
L 391.928595 273.475849 
L 395.207934 277.000853 
L 398.487273 295.488 
" clip-path="url(#p8c00c67fcb)" style="fill: none; stroke-dasharray: 1.5,2.475; stroke-dashoffset: 0; stroke: #ff7f0e; stroke-width: 1.5"/>
   </g>
   <g id="line2d_3">
    <path d="M 73.832727 237.973896 
L 77.112066 225.976179 
L 80.391405 224.768391 
L 83.670744 225.409408 
L 86.950083 223.16627 
L 90.229421 220.683654 
L 93.50876 215.619819 
L 96.788099 207.439267 
L 100.067438 195.476467 
L 103.346777 187.181859 
L 106.626116 188.464774 
L 109.905455 193.595703 
L 113.184793 184.665453 
L 116.464132 191.997344 
L 119.743471 193.457408 
L 123.02281 184.528588 
L 126.302149 177.436979 
L 129.581488 173.253556 
L 132.860826 171.365767 
L 136.140165 177.734974 
L 139.419504 185.936647 
L 142.698843 192.189416 
L 145.978182 178.22621 
L 149.257521 160.957246 
L 152.53686 160.519173 
L 155.816198 168.708675 
L 159.095537 164.606696 
L 162.374876 163.582678 
L 165.654215 155.368049 
L 168.933554 167.084203 
L 172.212893 169.622188 
L 175.492231 176.554086 
L 178.77157 177.232637 
L 182.050909 152.497494 
L 185.330248 151.85623 
L 188.609587 158.050668 
L 191.888926 171.939399 
L 195.168264 175.300119 
L 198.447603 164.106207 
L 201.726942 174.413008 
L 205.006281 184.596135 
L 208.28562 179.679055 
L 211.564959 184.241427 
L 214.844298 175.725626 
L 218.123636 169.690262 
L 221.402975 178.094852 
L 224.682314 176.653788 
L 227.961653 184.310386 
L 231.240992 179.162609 
L 234.520331 181.87986 
L 237.799669 185.423816 
L 241.079008 176.431104 
L 244.358347 178.931662 
L 247.637686 183.15437 
L 250.917025 186.253789 
L 254.196364 190.540687 
L 257.475702 186.671265 
L 260.755041 175.607139 
L 264.03438 192.729568 
L 267.313719 195.006794 
L 270.593058 192.777328 
L 273.872397 179.936934 
L 277.151736 209.02028 
L 280.431074 213.30767 
L 283.710413 206.306875 
L 286.989752 207.614999 
L 290.269091 207.677215 
L 293.54843 214.719505 
L 296.827769 213.889212 
L 300.107107 225.739584 
L 303.386446 215.260193 
L 306.665785 221.3675 
L 309.945124 223.363703 
L 313.224463 229.994921 
L 316.503802 213.906098 
L 319.78314 218.023342 
L 323.062479 223.408424 
L 326.341818 236.593398 
L 329.621157 240.396496 
L 332.900496 227.317546 
L 336.179835 231.811966 
L 339.459174 232.801545 
L 342.738512 227.559871 
L 346.017851 226.171931 
L 349.29719 240.116203 
L 352.576529 233.894082 
L 355.855868 235.150914 
L 359.135207 234.279378 
L 362.414545 236.006714 
L 365.693884 227.021821 
L 368.973223 224.548428 
L 372.252562 235.510795 
L 375.531901 235.368288 
L 378.81124 224.216359 
L 382.090579 225.379858 
L 385.369917 228.756007 
L 388.649256 228.080029 
L 391.928595 233.841671 
L 395.207934 236.837628 
L 398.487273 237.427532 
" clip-path="url(#p8c00c67fcb)" style="fill: none; stroke-dasharray: 5.55,2.4; stroke-dashoffset: 0; stroke: #2ca02c; stroke-width: 1.5"/>
   </g>
   <g id="patch_3">
    <path d="M 57.6 307.584 
L 57.6 41.472 
" style="fill: none; stroke: #000000; stroke-width: 0.8; stroke-linejoin: miter; stroke-linecap: square"/>
   </g>
   <g id="patch_4">
    <path d="M 414.72 307.584 
L 414.72 41.472 
" style="fill: none; stroke: #000000; stroke-width: 0.8; stroke-linejoin: miter; stroke-linecap: square"/>
   </g>
   <g id="patch_5">
    <path d="M 57.6 307.584 
L 414.72 307.584 
" style="fill: none; stroke: #000000; stroke-width: 0.8; stroke-linejoin: miter; stroke-linecap: square"/>
   </g>
   <g id="patch_6">
    <path d="M 57.6 41.472 
L 414.72 41.472 
" style="fill: none; stroke: #000000; stroke-width: 0.8; stroke-linejoin: miter; stroke-linecap: square"/>
   </g>
   <g id="legend_1">
    <g id="patch_7">
     <path d="M 339.290313 93.506375 
L 407.72 93.506375 
Q 409.72 93.506375 409.72 91.506375 
L 409.72 48.472 
Q 409.72 46.472 407.72 46.472 
L 339.290313 46.472 
Q 337.290313 46.472 337.290313 48.472 
L 337.290313 91.506375 
Q 337.290313 93.506375 339.290313 93.506375 
z
" style="fill: #ffffff; opacity: 0.8; stroke: #cccccc; stroke-linejoin: miter"/>
    </g>
    <g id="line2d_4">
     <path d="M 341.290313 54.570438 
L 351.290313 54.570438 
L 361.290313 54.570438 
" style="fill: none; stroke: #1f77b4; stroke-width: 1.5; stroke-linecap: square"/>
    </g>
    <g id="text_1">
     <!-- k = 1 -->
     <g transform="translate(369.290313 58.070438) scale(0.1 -0.1)">
      <defs>
       <path id="DejaVuSans-6b" d="M 581 4863 
L 1159 4863 
L 1159 1991 
L 2875 3500 
L 3609 3500 
L 1753 1863 
L 3688 0 
L 2938 0 
L 1159 1709 
L 1159 0 
L 581 0 
L 581 4863 
z
" transform="scale(0.015625)"/>
       <path id="DejaVuSans-20" transform="scale(0.015625)"/>
       <path id="DejaVuSans-3d" d="M 678 2906 
L 4684 2906 
L 4684 2381 
L 678 2381 
L 678 2906 
z
M 678 1631 
L 4684 1631 
L 4684 1100 
L 678 1100 
L 678 1631 
z
" transform="scale(0.015625)"/>
       <path id="DejaVuSans-31" d="M 794 531 
L 1825 531 
L 1825 4091 
L 703 3866 
L 703 4441 
L 1819 4666 
L 2450 4666 
L 2450 531 
L 3481 531 
L 3481 0 
L 794 0 
L 794 531 
z
" transform="scale(0.015625)"/>
      </defs>
      <use xlink:href="#DejaVuSans-6b"/>
      <use xlink:href="#DejaVuSans-20" x="57.910156"/>
      <use xlink:href="#DejaVuSans-3d" x="89.697266"/>
      <use xlink:href="#DejaVuSans-20" x="173.486328"/>
      <use xlink:href="#DejaVuSans-31" x="205.273438"/>
     </g>
    </g>
    <g id="line2d_5">
     <path d="M 341.290313 69.248563 
L 351.290313 69.248563 
L 361.290313 69.248563 
" style="fill: none; stroke-dasharray: 1.5,2.475; stroke-dashoffset: 0; stroke: #ff7f0e; stroke-width: 1.5"/>
    </g>
    <g id="text_2">
     <!-- k = 2.5 -->
     <g transform="translate(369.290313 72.748563) scale(0.1 -0.1)">
      <defs>
       <path id="DejaVuSans-32" d="M 1228 531 
L 3431 531 
L 3431 0 
L 469 0 
L 469 531 
Q 828 903 1448 1529 
Q 2069 2156 2228 2338 
Q 2531 2678 2651 2914 
Q 2772 3150 2772 3378 
Q 2772 3750 2511 3984 
Q 2250 4219 1831 4219 
Q 1534 4219 1204 4116 
Q 875 4013 500 3803 
L 500 4441 
Q 881 4594 1212 4672 
Q 1544 4750 1819 4750 
Q 2544 4750 2975 4387 
Q 3406 4025 3406 3419 
Q 3406 3131 3298 2873 
Q 3191 2616 2906 2266 
Q 2828 2175 2409 1742 
Q 1991 1309 1228 531 
z
" transform="scale(0.015625)"/>
       <path id="DejaVuSans-2e" d="M 684 794 
L 1344 794 
L 1344 0 
L 684 0 
L 684 794 
z
" transform="scale(0.015625)"/>
       <path id="DejaVuSans-35" d="M 691 4666 
L 3169 4666 
L 3169 4134 
L 1269 4134 
L 1269 2991 
Q 1406 3038 1543 3061 
Q 1681 3084 1819 3084 
Q 2600 3084 3056 2656 
Q 3513 2228 3513 1497 
Q 3513 744 3044 326 
Q 2575 -91 1722 -91 
Q 1428 -91 1123 -41 
Q 819 9 494 109 
L 494 744 
Q 775 591 1075 516 
Q 1375 441 1709 441 
Q 2250 441 2565 725 
Q 2881 1009 2881 1497 
Q 2881 1984 2565 2268 
Q 2250 2553 1709 2553 
Q 1456 2553 1204 2497 
Q 953 2441 691 2322 
L 691 4666 
z
" transform="scale(0.015625)"/>
      </defs>
      <use xlink:href="#DejaVuSans-6b"/>
      <use xlink:href="#DejaVuSans-20" x="57.910156"/>
      <use xlink:href="#DejaVuSans-3d" x="89.697266"/>
      <use xlink:href="#DejaVuSans-20" x="173.486328"/>
      <use xlink:href="#DejaVuSans-32" x="205.273438"/>
      <use xlink:href="#DejaVuSans-2e" x="268.896484"/>
      <use xlink:href="#DejaVuSans-35" x="300.683594"/>
     </g>
    </g>
    <g id="line2d_6">
     <path d="M 341.290313 83.926688 
L 351.290313 83.926688 
L 361.290313 83.926688 
" style="fill: none; stroke-dasharray: 5.55,2.4; stroke-dashoffset: 0; stroke: #2ca02c; stroke-width: 1.5"/>
    </g>
    <g id="text_3">
     <!-- k = 0.1 -->
     <g transform="translate(369.290313 87.426688) scale(0.1 -0.1)">
      <defs>
       <path id="DejaVuSans-30" d="M 2034 4250 
Q 1547 4250 1301 3770 
Q 1056 3291 1056 2328 
Q 1056 1369 1301 889 
Q 1547 409 2034 409 
Q 2525 409 2770 889 
Q 3016 1369 3016 2328 
Q 3016 3291 2770 3770 
Q 2525 4250 2034 4250 
z
M 2034 4750 
Q 2819 4750 3233 4129 
Q 3647 3509 3647 2328 
Q 3647 1150 3233 529 
Q 2819 -91 2034 -91 
Q 1250 -91 836 529 
Q 422 1150 422 2328 
Q 422 3509 836 4129 
Q 1250 4750 2034 4750 
z
" transform="scale(0.015625)"/>
      </defs>
      <use xlink:href="#DejaVuSans-6b"/>
      <use xlink:href="#DejaVuSans-20" x="57.910156"/>
      <use xlink:href="#DejaVuSans-3d" x="89.697266"/>
      <use xlink:href="#DejaVuSans-20" x="173.486328"/>
      <use xlink:href="#DejaVuSans-30" x="205.273438"/>
      <use xlink:href="#DejaVuSans-2e" x="268.896484"/>
      <use xlink:href="#DejaVuSans-31" x="300.683594"/>
     </g>
    </g>
   </g>
  </g>
 </g>
 <defs>
  <clipPath id="p8c00c67fcb">
   <rect x="57.6" y="41.472" width="357.12" height="266.112"/>
  </clipPath>
 </defs>
</svg>
