<?xml version="1.0" encoding="utf-8" standalone="no"?>
<!DOCTYPE svg PUBLIC "-//W3C//DTD SVG 1.1//EN"
  "http://www.w3.org/Graphics/SVG/1.1/DTD/svg11.dtd">
<svg xmlns:xlink="http://www.w3.org/1999/xlink" width="460.8pt" height="345.6pt" viewBox="0 0 460.8 345.6" xmlns="http://www.w3.org/2000/svg" version="1.1">
 <metadata>
  <rdf:RDF xmlns:dc="http://purl.org/dc/elements/1.1/" xmlns:cc="http://creativecommons.org/ns#" xmlns:rdf="http://www.w3.org/1999/02/22-rdf-syntax-ns#">
   <cc:Work>
    <dc:type rdf:resource="http://purl.org/dc/dcmitype/StillImage"/>
    <dc:date>2025-04-07T15:26:10.894842</dc:date>
    <dc:format>image/svg+xml</dc:format>
    <dc:creator>
     <cc:Agent>
      <dc:title>Matplotlib v3.7.1, https://matplotlib.org/</dc:title>
     </cc:Agent>
    </dc:creator>
   </cc:Work>
  </rdf:RDF>
 </metadata>
 <defs>
  <style type="text/css">*{stroke-linejoin: round; stroke-linecap: butt}</style>
 </defs>
 <g id="figure_1">
  <g id="patch_1">
   <path d="M 0 345.6 
L 460.8 345.6 
L 460.8 0 
L 0 0 
z
" style="fill: #ffffff"/>
  </g>
  <g id="axes_1">
   <g id="patch_2">
    <path d="M 57.6 307.584 
L 414.72 307.584 
L 414.72 41.472 
L 57.6 41.472 
z
" style="fill: #ffffff"/>
   </g>
   <g id="matplotlib.axis_1"/>
   <g id="matplotlib.axis_2"/>
   <g id="line2d_1">
    <path d="M 73.832727 196.956591 
L 77.112066 200.165471 
L 80.391405 203.985566 
L 83.670744 206.430427 
L 86.950083 184.885091 
L 90.229421 198.484629 
L 93.50876 193.136496 
L 96.788099 196.650984 
L 100.067438 177.244901 
L 103.346777 133.084602 
L 106.626116 111.997677 
L 109.905455 113.678519 
L 113.184793 142.711242 
L 116.464132 164.562185 
L 119.743471 170.215926 
L 123.02281 162.72854 
L 126.302149 139.655166 
L 129.581488 150.045824 
L 132.860826 149.89302 
L 136.140165 167.007046 
L 139.419504 166.701438 
L 142.698843 136.904697 
L 145.978182 103.135057 
L 149.257521 87.090658 
L 152.53686 118.10983 
L 155.816198 139.349558 
L 159.095537 139.502362 
L 162.374876 139.349558 
L 165.654215 118.262633 
L 168.933554 142.864045 
L 172.212893 148.823394 
L 175.492231 165.631812 
L 178.77157 156.769191 
L 182.050909 96.258886 
L 185.330248 78.380841 
L 188.609587 90.299538 
L 191.888926 129.722918 
L 195.168264 143.322457 
L 198.447603 137.210305 
L 201.726942 148.212178 
L 205.006281 148.517786 
L 208.28562 154.935546 
L 211.564959 164.256578 
L 214.844298 164.409381 
L 218.123636 147.142552 
L 221.402975 119.637868 
L 224.682314 103.899076 
L 227.961653 122.693944 
L 231.240992 140.419185 
L 234.520331 145.920121 
L 237.799669 158.450033 
L 241.079008 150.962647 
L 244.358347 145.156102 
L 247.637686 157.991622 
L 250.917025 164.409381 
L 254.196364 175.258451 
L 257.475702 160.589286 
L 260.755041 118.568241 
L 264.03438 120.55469 
L 267.313719 137.668716 
L 270.593058 158.144426 
L 273.872397 143.933672 
L 277.151736 182.745838 
L 280.431074 188.705186 
L 283.710413 173.730413 
L 286.989752 180.148173 
L 290.269091 180.453781 
L 293.54843 195.734161 
L 296.827769 189.469205 
L 300.107107 170.674337 
L 303.386446 141.336007 
L 306.665785 162.575736 
L 309.945124 192.066869 
L 313.224463 198.331825 
L 316.503802 189.469205 
L 319.78314 196.803787 
L 323.062479 192.219673 
L 326.341818 206.124819 
L 329.621157 206.736034 
L 332.900496 204.902389 
L 336.179835 209.486503 
L 339.459174 179.23135 
L 342.738512 151.268254 
L 346.017851 165.479008 
L 349.29719 211.625756 
L 352.576529 207.194446 
L 355.855868 212.389775 
L 359.135207 216.515478 
L 362.414545 206.277623 
L 365.693884 193.442104 
L 368.973223 184.273876 
L 372.252562 209.639307 
L 375.531901 215.445851 
L 378.81124 171.896768 
L 382.090579 146.225729 
L 385.369917 165.631812 
L 388.649256 202.304724 
L 391.928595 212.695383 
L 395.207934 215.904263 
L 398.487273 223.238845 
" clip-path="url(#p44f8f0cab1)" style="fill: none; stroke: #1f77b4; stroke-width: 1.5; stroke-linecap: square"/>
   </g>
   <g id="line2d_2">
    <path d="M 73.832727 196.956591 
L 77.112066 199.435682 
L 80.391405 202.525987 
L 83.670744 204.241059 
L 86.950083 181.965933 
L 90.229421 194.835682 
L 93.50876 188.757759 
L 96.788099 191.542457 
L 100.067438 171.406585 
L 103.346777 126.516497 
L 106.626116 104.699783 
L 109.905455 105.650835 
L 113.184793 133.953768 
L 116.464132 155.074922 
L 119.743471 159.998874 
L 123.02281 151.781698 
L 126.302149 127.978534 
L 129.581488 137.639404 
L 132.860826 136.75681 
L 136.140165 153.141047 
L 139.419504 152.10565 
L 142.698843 121.579119 
L 145.978182 87.079689 
L 149.257521 70.305501 
L 152.53686 100.594883 
L 155.816198 121.104822 
L 159.095537 120.527836 
L 162.374876 119.645243 
L 165.654215 97.828529 
L 168.933554 121.700151 
L 172.212893 126.92971 
L 175.492231 143.008339 
L 178.77157 133.415929 
L 182.050909 72.175834 
L 185.330248 53.568 
L 188.609587 64.756907 
L 191.888926 103.450498 
L 195.168264 116.320247 
L 198.447603 109.478306 
L 201.726942 119.75039 
L 205.006281 119.326208 
L 208.28562 125.014178 
L 211.564959 133.605421 
L 214.844298 133.028435 
L 218.123636 115.031816 
L 221.402975 86.797343 
L 224.682314 70.328762 
L 227.961653 88.39384 
L 231.240992 105.389291 
L 234.520331 110.160439 
L 237.799669 121.960561 
L 241.079008 113.743385 
L 244.358347 107.207051 
L 247.637686 119.312781 
L 250.917025 125.000751 
L 254.196364 135.120032 
L 257.475702 119.721077 
L 260.755041 76.970243 
L 264.03438 78.226903 
L 267.313719 94.611139 
L 270.593058 114.357059 
L 273.872397 99.416516 
L 277.151736 137.498892 
L 280.431074 142.728451 
L 283.710413 127.023889 
L 286.989752 132.711859 
L 290.269091 132.287677 
L 293.54843 146.838268 
L 296.827769 139.843523 
L 300.107107 120.318866 
L 303.386446 90.250746 
L 306.665785 110.760685 
L 309.945124 139.52203 
L 313.224463 145.057196 
L 316.503802 135.464786 
L 319.78314 142.069579 
L 323.062479 136.755676 
L 326.341818 149.931032 
L 329.621157 149.812458 
L 332.900496 147.249023 
L 336.179835 151.103347 
L 339.459174 120.118405 
L 342.738512 91.42552 
L 346.017851 104.906484 
L 349.29719 150.323443 
L 352.576529 145.162343 
L 355.855868 149.627883 
L 359.135207 153.023796 
L 362.414545 142.056152 
L 365.693884 128.490843 
L 368.973223 118.592826 
L 372.252562 143.228467 
L 375.531901 148.305222 
L 378.81124 104.026349 
L 382.090579 77.625521 
L 385.369917 96.301815 
L 388.649256 132.244938 
L 391.928595 141.905807 
L 395.207934 144.384897 
L 398.487273 150.98969 
" clip-path="url(#p44f8f0cab1)" style="fill: none; stroke-dasharray: 1.5,2.475; stroke-dashoffset: 0; stroke: #ff7f0e; stroke-width: 1.5"/>
   </g>
   <g id="line2d_3">
    <path d="M 73.832727 196.956591 
L 77.112066 200.89526 
L 80.391405 205.445145 
L 83.670744 208.619795 
L 86.950083 187.804249 
L 90.229421 202.133576 
L 93.50876 197.515233 
L 96.788099 201.75951 
L 100.067438 183.083216 
L 103.346777 139.652707 
L 106.626116 119.295572 
L 109.905455 121.706203 
L 113.184793 151.468715 
L 116.464132 174.049448 
L 119.743471 180.432978 
L 123.02281 173.675381 
L 126.302149 151.331797 
L 129.581488 162.452245 
L 132.860826 163.02923 
L 136.140165 180.873045 
L 139.419504 181.297227 
L 142.698843 152.230275 
L 145.978182 119.190425 
L 149.257521 103.875815 
L 152.53686 135.624776 
L 155.816198 157.594294 
L 159.095537 158.476887 
L 162.374876 159.053873 
L 165.654215 138.696738 
L 168.933554 164.027939 
L 172.212893 170.717077 
L 175.492231 188.255285 
L 178.77157 180.122454 
L 182.050909 120.341938 
L 185.330248 103.193682 
L 188.609587 115.842168 
L 191.888926 155.995338 
L 195.168264 170.324666 
L 198.447603 164.942304 
L 201.726942 176.673967 
L 205.006281 177.709364 
L 208.28562 184.856913 
L 211.564959 194.907734 
L 214.844298 195.790328 
L 218.123636 179.253287 
L 221.402975 152.478393 
L 224.682314 137.46939 
L 227.961653 156.994047 
L 231.240992 175.449078 
L 234.520331 181.679804 
L 237.799669 194.939505 
L 241.079008 188.181909 
L 244.358347 183.105154 
L 247.637686 196.670462 
L 250.917025 203.818011 
L 254.196364 215.396871 
L 257.475702 201.457495 
L 260.755041 160.166239 
L 264.03438 162.882478 
L 267.313719 180.726293 
L 270.593058 201.931792 
L 273.872397 188.450828 
L 277.151736 227.992783 
L 280.431074 234.681921 
L 283.710413 220.436938 
L 286.989752 227.584487 
L 290.269091 228.619884 
L 293.54843 244.630053 
L 296.827769 239.094887 
L 300.107107 221.029809 
L 303.386446 192.421268 
L 306.665785 214.390786 
L 309.945124 244.611709 
L 313.224463 251.606455 
L 316.503802 243.473624 
L 319.78314 251.537996 
L 323.062479 247.683671 
L 326.341818 262.318606 
L 329.621157 263.659611 
L 332.900496 262.555755 
L 336.179835 267.869658 
L 339.459174 238.344295 
L 342.738512 211.110989 
L 346.017851 226.051532 
L 349.29719 272.928069 
L 352.576529 269.226549 
L 355.855868 275.151667 
L 359.135207 280.007159 
L 362.414545 270.499094 
L 365.693884 258.393364 
L 368.973223 249.954926 
L 372.252562 276.050146 
L 375.531901 282.58648 
L 378.81124 239.767186 
L 382.090579 214.825937 
L 385.369917 234.961809 
L 388.649256 272.364511 
L 391.928595 283.484959 
L 395.207934 287.423628 
L 398.487273 295.488 
" clip-path="url(#p44f8f0cab1)" style="fill: none; stroke-dasharray: 5.55,2.4; stroke-dashoffset: 0; stroke: #2ca02c; stroke-width: 1.5"/>
   </g>
   <g id="patch_3">
    <path d="M 57.6 307.584 
L 57.6 41.472 
" style="fill: none; stroke: #000000; stroke-width: 0.8; stroke-linejoin: miter; stroke-linecap: square"/>
   </g>
   <g id="patch_4">
    <path d="M 414.72 307.584 
L 414.72 41.472 
" style="fill: none; stroke: #000000; stroke-width: 0.8; stroke-linejoin: miter; stroke-linecap: square"/>
   </g>
   <g id="patch_5">
    <path d="M 57.6 307.584 
L 414.72 307.584 
" style="fill: none; stroke: #000000; stroke-width: 0.8; stroke-linejoin: miter; stroke-linecap: square"/>
   </g>
   <g id="patch_6">
    <path d="M 57.6 41.472 
L 414.72 41.472 
" style="fill: none; stroke: #000000; stroke-width: 0.8; stroke-linejoin: miter; stroke-linecap: square"/>
   </g>
   <g id="legend_1">
    <g id="patch_7">
     <path d="M 64.6 93.506375 
L 140.5875 93.506375 
Q 142.5875 93.506375 142.5875 91.506375 
L 142.5875 48.472 
Q 142.5875 46.472 140.5875 46.472 
L 64.6 46.472 
Q 62.6 46.472 62.6 48.472 
L 62.6 91.506375 
Q 62.6 93.506375 64.6 93.506375 
z
" style="fill: #ffffff; opacity: 0.8; stroke: #cccccc; stroke-linejoin: miter"/>
    </g>
    <g id="line2d_4">
     <path d="M 66.6 54.570438 
L 76.6 54.570438 
L 86.6 54.570438 
" style="fill: none; stroke: #1f77b4; stroke-width: 1.5; stroke-linecap: square"/>
    </g>
    <g id="text_1">
     <!-- m = 0 -->
     <g transform="translate(94.6 58.070438) scale(0.1 -0.1)">
      <defs>
       <path id="DejaVuSans-6d" d="M 3328 2828 
Q 3544 3216 3844 3400 
Q 4144 3584 4550 3584 
Q 5097 3584 5394 3201 
Q 5691 2819 5691 2113 
L 5691 0 
L 5113 0 
L 5113 2094 
Q 5113 2597 4934 2840 
Q 4756 3084 4391 3084 
Q 3944 3084 3684 2787 
Q 3425 2491 3425 1978 
L 3425 0 
L 2847 0 
L 2847 2094 
Q 2847 2600 2669 2842 
Q 2491 3084 2119 3084 
Q 1678 3084 1418 2786 
Q 1159 2488 1159 1978 
L 1159 0 
L 581 0 
L 581 3500 
L 1159 3500 
L 1159 2956 
Q 1356 3278 1631 3431 
Q 1906 3584 2284 3584 
Q 2666 3584 2933 3390 
Q 3200 3197 3328 2828 
z
" transform="scale(0.015625)"/>
       <path id="DejaVuSans-20" transform="scale(0.015625)"/>
       <path id="DejaVuSans-3d" d="M 678 2906 
L 4684 2906 
L 4684 2381 
L 678 2381 
L 678 2906 
z
M 678 1631 
L 4684 1631 
L 4684 1100 
L 678 1100 
L 678 1631 
z
" transform="scale(0.015625)"/>
       <path id="DejaVuSans-30" d="M 2034 4250 
Q 1547 4250 1301 3770 
Q 1056 3291 1056 2328 
Q 1056 1369 1301 889 
Q 1547 409 2034 409 
Q 2525 409 2770 889 
Q 3016 1369 3016 2328 
Q 3016 3291 2770 3770 
Q 2525 4250 2034 4250 
z
M 2034 4750 
Q 2819 4750 3233 4129 
Q 3647 3509 3647 2328 
Q 3647 1150 3233 529 
Q 2819 -91 2034 -91 
Q 1250 -91 836 529 
Q 422 1150 422 2328 
Q 422 3509 836 4129 
Q 1250 4750 2034 4750 
z
" transform="scale(0.015625)"/>
      </defs>
      <use xlink:href="#DejaVuSans-6d"/>
      <use xlink:href="#DejaVuSans-20" x="97.412109"/>
      <use xlink:href="#DejaVuSans-3d" x="129.199219"/>
      <use xlink:href="#DejaVuSans-20" x="212.988281"/>
      <use xlink:href="#DejaVuSans-30" x="244.775391"/>
     </g>
    </g>
    <g id="line2d_5">
     <path d="M 66.6 69.248563 
L 76.6 69.248563 
L 86.6 69.248563 
" style="fill: none; stroke-dasharray: 1.5,2.475; stroke-dashoffset: 0; stroke: #ff7f0e; stroke-width: 1.5"/>
    </g>
    <g id="text_2">
     <!-- m = 0.5 -->
     <g transform="translate(94.6 72.748563) scale(0.1 -0.1)">
      <defs>
       <path id="DejaVuSans-2e" d="M 684 794 
L 1344 794 
L 1344 0 
L 684 0 
L 684 794 
z
" transform="scale(0.015625)"/>
       <path id="DejaVuSans-35" d="M 691 4666 
L 3169 4666 
L 3169 4134 
L 1269 4134 
L 1269 2991 
Q 1406 3038 1543 3061 
Q 1681 3084 1819 3084 
Q 2600 3084 3056 2656 
Q 3513 2228 3513 1497 
Q 3513 744 3044 326 
Q 2575 -91 1722 -91 
Q 1428 -91 1123 -41 
Q 819 9 494 109 
L 494 744 
Q 775 591 1075 516 
Q 1375 441 1709 441 
Q 2250 441 2565 725 
Q 2881 1009 2881 1497 
Q 2881 1984 2565 2268 
Q 2250 2553 1709 2553 
Q 1456 2553 1204 2497 
Q 953 2441 691 2322 
L 691 4666 
z
" transform="scale(0.015625)"/>
      </defs>
      <use xlink:href="#DejaVuSans-6d"/>
      <use xlink:href="#DejaVuSans-20" x="97.412109"/>
      <use xlink:href="#DejaVuSans-3d" x="129.199219"/>
      <use xlink:href="#DejaVuSans-20" x="212.988281"/>
      <use xlink:href="#DejaVuSans-30" x="244.775391"/>
      <use xlink:href="#DejaVuSans-2e" x="308.398438"/>
      <use xlink:href="#DejaVuSans-35" x="340.185547"/>
     </g>
    </g>
    <g id="line2d_6">
     <path d="M 66.6 83.926688 
L 76.6 83.926688 
L 86.6 83.926688 
" style="fill: none; stroke-dasharray: 5.55,2.4; stroke-dashoffset: 0; stroke: #2ca02c; stroke-width: 1.5"/>
    </g>
    <g id="text_3">
     <!-- m = -0.5 -->
     <g transform="translate(94.6 87.426688) scale(0.1 -0.1)">
      <defs>
       <path id="DejaVuSans-2d" d="M 313 2009 
L 1997 2009 
L 1997 1497 
L 313 1497 
L 313 2009 
z
" transform="scale(0.015625)"/>
      </defs>
      <use xlink:href="#DejaVuSans-6d"/>
      <use xlink:href="#DejaVuSans-20" x="97.412109"/>
      <use xlink:href="#DejaVuSans-3d" x="129.199219"/>
      <use xlink:href="#DejaVuSans-20" x="212.988281"/>
      <use xlink:href="#DejaVuSans-2d" x="244.775391"/>
      <use xlink:href="#DejaVuSans-30" x="280.859375"/>
      <use xlink:href="#DejaVuSans-2e" x="344.482422"/>
      <use xlink:href="#DejaVuSans-35" x="376.269531"/>
     </g>
    </g>
   </g>
  </g>
 </g>
 <defs>
  <clipPath id="p44f8f0cab1">
   <rect x="57.6" y="41.472" width="357.12" height="266.112"/>
  </clipPath>
 </defs>
</svg>
