<?xml version="1.0" encoding="utf-8" standalone="no"?>
<!DOCTYPE svg PUBLIC "-//W3C//DTD SVG 1.1//EN"
  "http://www.w3.org/Graphics/SVG/1.1/DTD/svg11.dtd">
<svg xmlns:xlink="http://www.w3.org/1999/xlink" width="460.8pt" height="345.6pt" viewBox="0 0 460.8 345.6" xmlns="http://www.w3.org/2000/svg" version="1.1">
 <metadata>
  <rdf:RDF xmlns:dc="http://purl.org/dc/elements/1.1/" xmlns:cc="http://creativecommons.org/ns#" xmlns:rdf="http://www.w3.org/1999/02/22-rdf-syntax-ns#">
   <cc:Work>
    <dc:type rdf:resource="http://purl.org/dc/dcmitype/StillImage"/>
    <dc:date>2025-04-07T15:26:10.730377</dc:date>
    <dc:format>image/svg+xml</dc:format>
    <dc:creator>
     <cc:Agent>
      <dc:title>Matplotlib v3.7.1, https://matplotlib.org/</dc:title>
     </cc:Agent>
    </dc:creator>
   </cc:Work>
  </rdf:RDF>
 </metadata>
 <defs>
  <style type="text/css">*{stroke-linejoin: round; stroke-linecap: butt}</style>
 </defs>
 <g id="figure_1">
  <g id="patch_1">
   <path d="M 0 345.6 
L 460.8 345.6 
L 460.8 0 
L 0 0 
z
" style="fill: #ffffff"/>
  </g>
  <g id="axes_1">
   <g id="patch_2">
    <path d="M 57.6 307.584 
L 414.72 307.584 
L 414.72 41.472 
L 57.6 41.472 
z
" style="fill: #ffffff"/>
   </g>
   <g id="matplotlib.axis_1"/>
   <g id="matplotlib.axis_2"/>
   <g id="line2d_1">
    <path d="M 73.832727 199.178807 
L 77.112066 202.893852 
L 80.391405 207.316526 
L 83.670744 210.147037 
L 86.950083 185.203159 
L 90.229421 200.947876 
L 93.50876 194.756133 
L 96.788099 198.824993 
L 100.067438 176.357812 
L 103.346777 125.231708 
L 106.626116 100.818551 
L 109.905455 102.764527 
L 113.184793 136.376845 
L 116.464132 161.674537 
L 119.743471 168.220093 
L 123.02281 159.551653 
L 126.302149 132.838706 
L 129.581488 144.868378 
L 132.860826 144.691471 
L 136.140165 164.505048 
L 139.419504 164.151234 
L 142.698843 129.654381 
L 145.978182 90.557949 
L 149.257521 71.98272 
L 152.53686 107.894828 
L 155.816198 132.484892 
L 159.095537 132.661799 
L 162.374876 132.484892 
L 165.654215 108.071735 
L 168.933554 136.553752 
L 172.212893 143.453122 
L 175.492231 162.912885 
L 178.77157 152.652283 
L 182.050909 82.597137 
L 185.330248 61.899025 
L 188.609587 75.697766 
L 191.888926 121.339755 
L 195.168264 137.084473 
L 198.447603 130.008195 
L 201.726942 142.745495 
L 205.006281 143.099308 
L 208.28562 150.5294 
L 211.564959 161.320723 
L 214.844298 161.49763 
L 218.123636 141.507146 
L 221.402975 109.663898 
L 224.682314 91.442483 
L 227.961653 113.202036 
L 231.240992 133.723241 
L 234.520331 140.091891 
L 237.799669 154.598259 
L 241.079008 145.929819 
L 244.358347 139.207356 
L 247.637686 154.067538 
L 250.917025 161.49763 
L 254.196364 174.058022 
L 257.475702 157.074956 
L 260.755041 108.425549 
L 264.03438 110.725339 
L 267.313719 130.538916 
L 270.593058 154.244445 
L 273.872397 137.7921 
L 277.151736 182.726462 
L 280.431074 189.625832 
L 283.710413 172.288953 
L 286.989752 179.719044 
L 290.269091 180.072858 
L 293.54843 197.763551 
L 296.827769 190.510367 
L 300.107107 168.750814 
L 303.386446 134.784682 
L 306.665785 159.374746 
L 309.945124 193.517785 
L 313.224463 200.770969 
L 316.503802 190.510367 
L 319.78314 199.0019 
L 323.062479 193.694692 
L 326.341818 209.793223 
L 329.621157 210.500851 
L 332.900496 208.377967 
L 336.179835 213.685176 
L 339.459174 178.657602 
L 342.738512 146.283633 
L 346.017851 162.735978 
L 349.29719 216.161873 
L 352.576529 211.031571 
L 355.855868 217.046407 
L 359.135207 221.822895 
L 362.414545 209.97013 
L 365.693884 195.109947 
L 368.973223 184.495531 
L 372.252562 213.862082 
L 375.531901 220.584546 
L 378.81124 170.166069 
L 382.090579 140.445704 
L 385.369917 162.912885 
L 388.649256 205.37055 
L 391.928595 217.400221 
L 395.207934 221.115267 
L 398.487273 229.6068 
" clip-path="url(#p3614590bee)" style="fill: none; stroke: #1f77b4; stroke-width: 1.5; stroke-linecap: square"/>
   </g>
   <g id="line2d_2">
    <path d="M 73.832727 266.31479 
L 77.112066 265.758962 
L 80.391405 265.939512 
L 83.670744 264.559971 
L 86.950083 235.443403 
L 90.229421 247.057118 
L 93.50876 236.776517 
L 96.788099 236.793381 
L 100.067438 210.297762 
L 103.346777 155.144459 
L 106.626116 126.680646 
L 109.905455 124.564787 
L 113.184793 154.854817 
L 116.464132 177.342427 
L 119.743471 181.556208 
L 123.02281 170.885397 
L 126.302149 142.324855 
L 129.581488 152.494487 
L 132.860826 150.322999 
L 136.140165 167.980816 
L 139.419504 165.441171 
L 142.698843 128.928648 
L 145.978182 88.145065 
L 149.257521 68.238557 
L 152.53686 103.054597 
L 155.816198 126.589676 
L 159.095537 125.614354 
L 162.374876 124.204978 
L 165.654215 98.603764 
L 168.933554 126.099121 
L 172.212893 132.424234 
L 175.492231 151.89307 
L 178.77157 142.214591 
L 182.050909 73.135438 
L 185.330248 53.568 
L 188.609587 68.493977 
L 191.888926 115.21833 
L 195.168264 132.006912 
L 198.447603 125.992887 
L 201.726942 139.868094 
L 205.006281 141.509839 
L 208.28562 150.375848 
L 211.564959 162.622253 
L 214.844298 164.090845 
L 218.123636 145.101758 
L 221.402975 114.014706 
L 224.682314 96.433923 
L 227.961653 118.797494 
L 231.240992 139.891572 
L 234.520331 146.87547 
L 237.799669 162.16807 
L 241.079008 154.463965 
L 244.358347 148.764181 
L 247.637686 164.704316 
L 250.917025 173.342214 
L 254.196364 187.32958 
L 257.475702 172.061319 
L 260.755041 125.397443 
L 264.03438 129.907921 
L 267.313719 152.113028 
L 270.593058 178.394287 
L 273.872397 164.655909 
L 277.151736 212.388081 
L 280.431074 222.171204 
L 283.710413 207.785021 
L 286.989752 218.103153 
L 290.269091 221.140725 
L 293.54843 241.251288 
L 296.827769 236.238267 
L 300.107107 216.66425 
L 303.386446 184.808233 
L 306.665785 211.378403 
L 309.945124 247.394689 
L 313.224463 256.461907 
L 316.503802 247.88634 
L 319.78314 257.862155 
L 323.062479 253.831361 
L 326.341818 271.049099 
L 329.621157 272.79843 
L 332.900496 271.695319 
L 336.179835 277.974495 
L 339.459174 243.786012 
L 342.738512 212.092208 
L 346.017851 229.036156 
L 349.29719 282.709786 
L 352.576529 277.572075 
L 355.855868 283.419454 
L 359.135207 287.974675 
L 362.414545 275.919021 
L 365.693884 260.912813 
L 368.973223 250.261613 
L 372.252562 279.614034 
L 375.531901 286.328262 
L 378.81124 235.904169 
L 382.090579 206.180335 
L 385.369917 228.649357 
L 388.649256 271.118202 
L 391.928595 283.172407 
L 395.207934 286.93063 
L 398.487273 295.488 
" clip-path="url(#p3614590bee)" style="fill: none; stroke-dasharray: 1.5,2.475; stroke-dashoffset: 0; stroke: #ff7f0e; stroke-width: 1.5"/>
   </g>
   <g id="line2d_3">
    <path d="M 73.832727 165.610815 
L 77.112066 171.461298 
L 80.391405 178.005033 
L 83.670744 182.94057 
L 86.950083 160.083037 
L 90.229421 177.893255 
L 93.50876 173.745942 
L 96.788099 179.840799 
L 100.067438 159.387837 
L 103.346777 110.275333 
L 106.626116 87.887503 
L 109.905455 91.864398 
L 113.184793 127.137859 
L 116.464132 153.840591 
L 119.743471 161.552036 
L 123.02281 153.884781 
L 126.302149 128.095632 
L 129.581488 141.055323 
L 132.860826 141.875707 
L 136.140165 162.767163 
L 139.419504 163.506265 
L 142.698843 130.017248 
L 145.978182 91.76439 
L 149.257521 73.854802 
L 152.53686 110.314944 
L 155.816198 135.4325 
L 159.095537 136.185522 
L 162.374876 136.624849 
L 165.654215 112.805721 
L 168.933554 141.781067 
L 172.212893 148.967566 
L 175.492231 168.422793 
L 178.77157 157.871129 
L 182.050909 87.327986 
L 185.330248 66.064538 
L 188.609587 79.29966 
L 191.888926 124.400468 
L 195.168264 139.623253 
L 198.447603 132.01585 
L 201.726942 144.184195 
L 205.006281 143.894043 
L 208.28562 150.606176 
L 211.564959 160.669957 
L 214.844298 160.201022 
L 218.123636 139.70984 
L 221.402975 107.488494 
L 224.682314 88.946763 
L 227.961653 110.404308 
L 231.240992 130.639075 
L 234.520331 136.700101 
L 237.799669 150.813354 
L 241.079008 141.662747 
L 244.358347 134.428943 
L 247.637686 148.74915 
L 250.917025 155.575337 
L 254.196364 167.422243 
L 257.475702 149.581775 
L 260.755041 99.939602 
L 264.03438 101.134048 
L 267.313719 119.75186 
L 270.593058 142.169525 
L 273.872397 124.360196 
L 277.151736 167.895652 
L 280.431074 173.353147 
L 283.710413 154.540919 
L 286.989752 160.526989 
L 290.269091 159.538924 
L 293.54843 176.019683 
L 296.827769 167.646417 
L 300.107107 144.794096 
L 303.386446 109.772907 
L 306.665785 133.372918 
L 309.945124 166.579333 
L 313.224463 172.9255 
L 316.503802 161.822381 
L 319.78314 169.571772 
L 323.062479 163.626357 
L 326.341818 179.165285 
L 329.621157 179.352061 
L 332.900496 176.719291 
L 336.179835 181.540516 
L 339.459174 146.093398 
L 342.738512 113.379346 
L 346.017851 129.585889 
L 349.29719 182.887916 
L 352.576529 177.76132 
L 355.855868 183.859884 
L 359.135207 188.747004 
L 362.414545 176.995684 
L 365.693884 162.208515 
L 368.973223 151.61249 
L 372.252562 180.986107 
L 375.531901 187.712688 
L 378.81124 137.29702 
L 382.090579 107.578389 
L 385.369917 130.044649 
L 388.649256 172.496724 
L 391.928595 184.514128 
L 395.207934 188.207585 
L 398.487273 196.6662 
" clip-path="url(#p3614590bee)" style="fill: none; stroke-dasharray: 5.55,2.4; stroke-dashoffset: 0; stroke: #2ca02c; stroke-width: 1.5"/>
   </g>
   <g id="patch_3">
    <path d="M 57.6 307.584 
L 57.6 41.472 
" style="fill: none; stroke: #000000; stroke-width: 0.8; stroke-linejoin: miter; stroke-linecap: square"/>
   </g>
   <g id="patch_4">
    <path d="M 414.72 307.584 
L 414.72 41.472 
" style="fill: none; stroke: #000000; stroke-width: 0.8; stroke-linejoin: miter; stroke-linecap: square"/>
   </g>
   <g id="patch_5">
    <path d="M 57.6 307.584 
L 414.72 307.584 
" style="fill: none; stroke: #000000; stroke-width: 0.8; stroke-linejoin: miter; stroke-linecap: square"/>
   </g>
   <g id="patch_6">
    <path d="M 57.6 41.472 
L 414.72 41.472 
" style="fill: none; stroke: #000000; stroke-width: 0.8; stroke-linejoin: miter; stroke-linecap: square"/>
   </g>
   <g id="legend_1">
    <g id="patch_7">
     <path d="M 341.560625 93.506375 
L 407.72 93.506375 
Q 409.72 93.506375 409.72 91.506375 
L 409.72 48.472 
Q 409.72 46.472 407.72 46.472 
L 341.560625 46.472 
Q 339.560625 46.472 339.560625 48.472 
L 339.560625 91.506375 
Q 339.560625 93.506375 341.560625 93.506375 
z
" style="fill: #ffffff; opacity: 0.8; stroke: #cccccc; stroke-linejoin: miter"/>
    </g>
    <g id="line2d_4">
     <path d="M 343.560625 54.570438 
L 353.560625 54.570438 
L 363.560625 54.570438 
" style="fill: none; stroke: #1f77b4; stroke-width: 1.5; stroke-linecap: square"/>
    </g>
    <g id="text_1">
     <!-- f = 1 -->
     <g transform="translate(371.560625 58.070438) scale(0.1 -0.1)">
      <defs>
       <path id="DejaVuSans-66" d="M 2375 4863 
L 2375 4384 
L 1825 4384 
Q 1516 4384 1395 4259 
Q 1275 4134 1275 3809 
L 1275 3500 
L 2222 3500 
L 2222 3053 
L 1275 3053 
L 1275 0 
L 697 0 
L 697 3053 
L 147 3053 
L 147 3500 
L 697 3500 
L 697 3744 
Q 697 4328 969 4595 
Q 1241 4863 1831 4863 
L 2375 4863 
z
" transform="scale(0.015625)"/>
       <path id="DejaVuSans-20" transform="scale(0.015625)"/>
       <path id="DejaVuSans-3d" d="M 678 2906 
L 4684 2906 
L 4684 2381 
L 678 2381 
L 678 2906 
z
M 678 1631 
L 4684 1631 
L 4684 1100 
L 678 1100 
L 678 1631 
z
" transform="scale(0.015625)"/>
       <path id="DejaVuSans-31" d="M 794 531 
L 1825 531 
L 1825 4091 
L 703 3866 
L 703 4441 
L 1819 4666 
L 2450 4666 
L 2450 531 
L 3481 531 
L 3481 0 
L 794 0 
L 794 531 
z
" transform="scale(0.015625)"/>
      </defs>
      <use xlink:href="#DejaVuSans-66"/>
      <use xlink:href="#DejaVuSans-20" x="35.205078"/>
      <use xlink:href="#DejaVuSans-3d" x="66.992188"/>
      <use xlink:href="#DejaVuSans-20" x="150.78125"/>
      <use xlink:href="#DejaVuSans-31" x="182.568359"/>
     </g>
    </g>
    <g id="line2d_5">
     <path d="M 343.560625 69.248563 
L 353.560625 69.248563 
L 363.560625 69.248563 
" style="fill: none; stroke-dasharray: 1.5,2.475; stroke-dashoffset: 0; stroke: #ff7f0e; stroke-width: 1.5"/>
    </g>
    <g id="text_2">
     <!-- f = 2 -->
     <g transform="translate(371.560625 72.748563) scale(0.1 -0.1)">
      <defs>
       <path id="DejaVuSans-32" d="M 1228 531 
L 3431 531 
L 3431 0 
L 469 0 
L 469 531 
Q 828 903 1448 1529 
Q 2069 2156 2228 2338 
Q 2531 2678 2651 2914 
Q 2772 3150 2772 3378 
Q 2772 3750 2511 3984 
Q 2250 4219 1831 4219 
Q 1534 4219 1204 4116 
Q 875 4013 500 3803 
L 500 4441 
Q 881 4594 1212 4672 
Q 1544 4750 1819 4750 
Q 2544 4750 2975 4387 
Q 3406 4025 3406 3419 
Q 3406 3131 3298 2873 
Q 3191 2616 2906 2266 
Q 2828 2175 2409 1742 
Q 1991 1309 1228 531 
z
" transform="scale(0.015625)"/>
      </defs>
      <use xlink:href="#DejaVuSans-66"/>
      <use xlink:href="#DejaVuSans-20" x="35.205078"/>
      <use xlink:href="#DejaVuSans-3d" x="66.992188"/>
      <use xlink:href="#DejaVuSans-20" x="150.78125"/>
      <use xlink:href="#DejaVuSans-32" x="182.568359"/>
     </g>
    </g>
    <g id="line2d_6">
     <path d="M 343.560625 83.926688 
L 353.560625 83.926688 
L 363.560625 83.926688 
" style="fill: none; stroke-dasharray: 5.55,2.4; stroke-dashoffset: 0; stroke: #2ca02c; stroke-width: 1.5"/>
    </g>
    <g id="text_3">
     <!-- f = 0.5 -->
     <g transform="translate(371.560625 87.426688) scale(0.1 -0.1)">
      <defs>
       <path id="DejaVuSans-30" d="M 2034 4250 
Q 1547 4250 1301 3770 
Q 1056 3291 1056 2328 
Q 1056 1369 1301 889 
Q 1547 409 2034 409 
Q 2525 409 2770 889 
Q 3016 1369 3016 2328 
Q 3016 3291 2770 3770 
Q 2525 4250 2034 4250 
z
M 2034 4750 
Q 2819 4750 3233 4129 
Q 3647 3509 3647 2328 
Q 3647 1150 3233 529 
Q 2819 -91 2034 -91 
Q 1250 -91 836 529 
Q 422 1150 422 2328 
Q 422 3509 836 4129 
Q 1250 4750 2034 4750 
z
" transform="scale(0.015625)"/>
       <path id="DejaVuSans-2e" d="M 684 794 
L 1344 794 
L 1344 0 
L 684 0 
L 684 794 
z
" transform="scale(0.015625)"/>
       <path id="DejaVuSans-35" d="M 691 4666 
L 3169 4666 
L 3169 4134 
L 1269 4134 
L 1269 2991 
Q 1406 3038 1543 3061 
Q 1681 3084 1819 3084 
Q 2600 3084 3056 2656 
Q 3513 2228 3513 1497 
Q 3513 744 3044 326 
Q 2575 -91 1722 -91 
Q 1428 -91 1123 -41 
Q 819 9 494 109 
L 494 744 
Q 775 591 1075 516 
Q 1375 441 1709 441 
Q 2250 441 2565 725 
Q 2881 1009 2881 1497 
Q 2881 1984 2565 2268 
Q 2250 2553 1709 2553 
Q 1456 2553 1204 2497 
Q 953 2441 691 2322 
L 691 4666 
z
" transform="scale(0.015625)"/>
      </defs>
      <use xlink:href="#DejaVuSans-66"/>
      <use xlink:href="#DejaVuSans-20" x="35.205078"/>
      <use xlink:href="#DejaVuSans-3d" x="66.992188"/>
      <use xlink:href="#DejaVuSans-20" x="150.78125"/>
      <use xlink:href="#DejaVuSans-30" x="182.568359"/>
      <use xlink:href="#DejaVuSans-2e" x="246.191406"/>
      <use xlink:href="#DejaVuSans-35" x="277.978516"/>
     </g>
    </g>
   </g>
  </g>
 </g>
 <defs>
  <clipPath id="p3614590bee">
   <rect x="57.6" y="41.472" width="357.12" height="266.112"/>
  </clipPath>
 </defs>
</svg>
